/* XPM */
static char * door_c_xpm[] = {
"64 64 537 2",
"  	c #F2DEC0",
". 	c #EAD6B9",
"+ 	c #ECD8BB",
"@ 	c #EFDBBD",
"# 	c #F0DCBE",
"$ 	c #F3DEC0",
"% 	c #F0DBBE",
"& 	c #F1DDBF",
"* 	c #F0DCBF",
"= 	c #F4E0C2",
"- 	c #EDD9BC",
"; 	c #EFDBBE",
"> 	c #F2DDBF",
", 	c #F3DFC0",
"' 	c #F2DDC0",
") 	c #F1DCBE",
"! 	c #F4DFC1",
"~ 	c #EEDABC",
"{ 	c #F5E0C2",
"] 	c #F1DCBF",
"^ 	c #F7E2C4",
"/ 	c #EFDABD",
"( 	c #F6E1C3",
"_ 	c #EBD7BA",
": 	c #EDD9BB",
"< 	c #F3DFC1",
"[ 	c #EED9BC",
"} 	c #EDD8BB",
"| 	c #F8E3C4",
"1 	c #F5E1C3",
"2 	c #F4E0C1",
"3 	c #EEDABD",
"4 	c #F4DFC2",
"5 	c #F5E1C2",
"6 	c #F3DEC1",
"7 	c #ECD8BA",
"8 	c #F0DBBD",
"9 	c #F6E2C3",
"0 	c #8C1D0B",
"a 	c #8D2D15",
"b 	c #8D2E15",
"c 	c #8D2913",
"d 	c #F7E2C3",
"e 	c #B48572",
"f 	c #8C1C0B",
"g 	c #8C1B0A",
"h 	c #892E15",
"i 	c #853B1C",
"j 	c #853C1D",
"k 	c #86381A",
"l 	c #8B240F",
"m 	c #8C1A0A",
"n 	c #F8E3C5",
"o 	c #8B3016",
"p 	c #8B3C1D",
"q 	c #8B3B1D",
"r 	c #7D3215",
"s 	c #6B2509",
"t 	c #6A2509",
"u 	c #6A2408",
"v 	c #70290D",
"w 	c #85381A",
"x 	c #8B3A1C",
"y 	c #8C240F",
"z 	c #A86E5E",
"A 	c #8B2F16",
"B 	c #7F3015",
"C 	c #762E13",
"D 	c #762F13",
"E 	c #6A3310",
"F 	c #5B380E",
"G 	c #5C3A0F",
"H 	c #5B380D",
"I 	c #5A380D",
"J 	c #60370E",
"K 	c #713112",
"L 	c #772E13",
"M 	c #782F13",
"N 	c #853217",
"O 	c #8D2812",
"P 	c #8C1F0C",
"Q 	c #8D230F",
"R 	c #8A2A13",
"S 	c #813619",
"T 	c #6D3211",
"U 	c #5F2C07",
"V 	c #5F2B07",
"W 	c #694A1C",
"X 	c #725F29",
"Y 	c #645420",
"Z 	c #62511E",
"` 	c #715E28",
" .	c #73602A",
"..	c #73612A",
"+.	c #705A26",
"@.	c #633A12",
"#.	c #5F2A06",
"$.	c #5F2C08",
"%.	c #612C08",
"&.	c #763515",
"*.	c #863317",
"=.	c #8C2510",
"-.	c #8C1708",
";.	c #8A371A",
">.	c #8A3E1E",
",.	c #823719",
"'.	c #6B2B0C",
").	c #5E3D12",
"!.	c #5D4A19",
"~.	c #624E1C",
"{.	c #624E1D",
"].	c #7F6A31",
"^.	c #97803F",
"/.	c #967F3F",
"(.	c #77642C",
"_.	c #947D3D",
":.	c #988140",
"<.	c #917A3C",
"[.	c #705B26",
"}.	c #5D4918",
"|.	c #624C1B",
"1.	c #653711",
"2.	c #742E11",
"3.	c #883B1D",
"4.	c #8A3D1E",
"5.	c #8B2E15",
"6.	c #8D220E",
"7.	c #883418",
"8.	c #772D12",
"9.	c #72290F",
"0.	c #6D3010",
"a.	c #5E3D11",
"b.	c #594615",
"c.	c #6F5D27",
"d.	c #8A7437",
"e.	c #8C7639",
"f.	c #947D3E",
"g.	c #9D8542",
"h.	c #9B8341",
"i.	c #7A662E",
"j.	c #736029",
"k.	c #9D8543",
"l.	c #9A8341",
"m.	c #8F793A",
"n.	c #695824",
"o.	c #857034",
"p.	c #705825",
"q.	c #63370F",
"r.	c #712C0F",
"s.	c #722A0F",
"t.	c #7F3115",
"u.	c #8C3117",
"v.	c #D0B098",
"w.	c #873016",
"x.	c #7A3416",
"y.	c #64310C",
"z.	c #5B2D06",
"A.	c #664318",
"B.	c #75612A",
"C.	c #665521",
"D.	c #9A8241",
"E.	c #9C8442",
"F.	c #79662E",
"G.	c #726029",
"H.	c #988040",
"I.	c #7E6A31",
"J.	c #705D28",
"K.	c #957E3E",
"L.	c #897437",
"M.	c #705725",
"N.	c #5F350D",
"O.	c #5D2F08",
"P.	c #6D3311",
"Q.	c #803317",
"R.	c #8A2B13",
"S.	c #8D1708",
"T.	c #893519",
"U.	c #793416",
"V.	c #66320E",
"W.	c #664E1E",
"X.	c #665420",
"Y.	c #78632C",
"Z.	c #927C3C",
"`.	c #75622B",
" +	c #76632C",
".+	c #998240",
"++	c #9B8342",
"@+	c #7E6930",
"#+	c #967F3E",
"$+	c #8B7538",
"%+	c #6B5824",
"&+	c #675421",
"*+	c #654318",
"=+	c #6C2D0E",
"-+	c #82381A",
";+	c #8A2C14",
">+	c #DCC0A5",
",+	c #F2DEBF",
"'+	c #8C1F0D",
")+	c #8A361A",
"!+	c #64320D",
"~+	c #674F1E",
"{+	c #897337",
"]+	c #927B3C",
"^+	c #76632B",
"/+	c #998140",
"(+	c #7C662E",
"_+	c #604014",
":+	c #6C2C0D",
"<+	c #F6E1C2",
"[+	c #8D2410",
"}+	c #893E1E",
"|+	c #70280E",
"1+	c #5B2F07",
"2+	c #685622",
"3+	c #937C3D",
"4+	c #9E8643",
"5+	c #836F34",
"6+	c #5D4617",
"7+	c #622505",
"8+	c #7D3518",
"9+	c #8D391C",
"0+	c #B68774",
"a+	c #6C2F0F",
"b+	c #654217",
"c+	c #836E34",
"d+	c #5D4717",
"e+	c #60300A",
"f+	c #763415",
"g+	c #873519",
"h+	c #8C200D",
"i+	c #8C2F16",
"j+	c #813618",
"k+	c #5F3D12",
"l+	c #836E33",
"m+	c #5D4C1A",
"n+	c #5F4919",
"o+	c #742D11",
"p+	c #88381B",
"q+	c #8C220E",
"r+	c #A86E5D",
"s+	c #6E3311",
"t+	c #5E3C11",
"u+	c #5A4616",
"v+	c #7C6930",
"w+	c #826D33",
"x+	c #675521",
"y+	c #806C32",
"z+	c #725926",
"A+	c #643810",
"B+	c #753013",
"C+	c #863217",
"D+	c #8C2711",
"E+	c #752E12",
"F+	c #5F2E09",
"G+	c #5B4817",
"H+	c #594A18",
"I+	c #7C682F",
"J+	c #6D5B26",
"K+	c #7D6A30",
"L+	c #5B3F12",
"M+	c #662406",
"N+	c #81381A",
"O+	c #8D3419",
"P+	c #F9E4C5",
"Q+	c #602E09",
"R+	c #6D5A25",
"S+	c #7D6930",
"T+	c #5C3F12",
"U+	c #662407",
"V+	c #762E12",
"W+	c #5A4716",
"X+	c #892C14",
"Y+	c #7E3316",
"Z+	c #6A310F",
"`+	c #68491C",
" @	c #77632C",
".@	c #655420",
"+@	c #7B672F",
"@@	c #6C5A25",
"#@	c #8C7739",
"$@	c #745C28",
"%@	c #633911",
"&@	c #733213",
"*@	c #833116",
"=@	c #8B2711",
"-@	c #853A1C",
";@	c #6B270A",
">@	c #654418",
",@	c #7A672E",
"'@	c #937D3D",
")@	c #8F783A",
"!@	c #6E5925",
"~@	c #64340F",
"{@	c #762D12",
"]@	c #8D2F16",
"^@	c #843A1C",
"/@	c #6C2A0D",
"(@	c #81632E",
"_@	c #90783B",
":@	c #744A20",
"<@	c #742B11",
"[@	c #8D2E16",
"}@	c #6D2C0E",
"|@	c #896A33",
"1@	c #998040",
"2@	c #795024",
"3@	c #742B10",
"4@	c #886933",
"5@	c #99803F",
"6@	c #784F23",
"7@	c #6D5B25",
"8@	c #887338",
"9@	c #685726",
"0@	c #57481A",
"a@	c #796630",
"b@	c #927B3D",
"c@	c #9D8643",
"d@	c #F5E0C3",
"e@	c #E9D6B9",
"f@	c #8D773C",
"g@	c #584A29",
"h@	c #23201A",
"i@	c #221F19",
"j@	c #342D1E",
"k@	c #766433",
"l@	c #978040",
"m@	c #987F3F",
"n@	c #794F23",
"o@	c #9E8543",
"p@	c #47443F",
"q@	c #464748",
"r@	c #474748",
"s@	c #474747",
"t@	c #4B4334",
"u@	c #6F5D2D",
"v@	c #937B3D",
"w@	c #877238",
"x@	c #635530",
"y@	c #42413F",
"z@	c #626263",
"A@	c #9B9B9B",
"B@	c #BFBFBF",
"C@	c #BDBDBD",
"D@	c #868788",
"E@	c #4C4533",
"F@	c #705C2F",
"G@	c #6A3D18",
"H@	c #752D11",
"I@	c #645427",
"J@	c #2D2D2D",
"K@	c #565656",
"L@	c #797979",
"M@	c #EBEBEB",
"N@	c #E9E9E9",
"O@	c #ABABAB",
"P@	c #434343",
"Q@	c #291D17",
"R@	c #521200",
"S@	c #762F12",
"T@	c #625226",
"U@	c #292A2D",
"V@	c #575757",
"W@	c #7A7A7A",
"X@	c #949494",
"Y@	c #A2A2A2",
"Z@	c #A0A0A0",
"`@	c #7D7D7D",
" #	c #444545",
".#	c #221515",
"+#	c #510E00",
"@#	c #615125",
"##	c #25282D",
"$#	c #585858",
"%#	c #7B7B7B",
"&#	c #848484",
"*#	c #818181",
"=#	c #808080",
"-#	c #6A6A6A",
";#	c #444546",
">#	c #1C0F14",
",#	c #500A00",
"'#	c #705D27",
")#	c #776530",
"!#	c #4E452F",
"~#	c #4E4D4C",
"{#	c #6E6E6F",
"]#	c #787878",
"^#	c #5F5F60",
"/#	c #4A463D",
"(#	c #564625",
"_#	c #5F2E0D",
":#	c #7B6532",
"<#	c #393327",
"[#	c #4B4B4B",
"}#	c #555555",
"|#	c #3A3B3B",
"1#	c #584926",
"2#	c #8B7138",
"3#	c #764B21",
"4#	c #742C11",
"5#	c #957D3E",
"6#	c #987038",
"7#	c #7F5426",
"8#	c #4E3D17",
"9#	c #333026",
"0#	c #2A2B2C",
"a#	c #2B2B2C",
"b#	c #2C2C2B",
"c#	c #3C341E",
"d#	c #66491D",
"e#	c #8B592B",
"f#	c #753B18",
"g#	c #EBD7BB",
"h#	c #957C3D",
"i#	c #936130",
"j#	c #7D431D",
"k#	c #5C4717",
"l#	c #41360D",
"m#	c #362B06",
"n#	c #362B07",
"o#	c #382D08",
"p#	c #4C4012",
"q#	c #6C481B",
"r#	c #853F1E",
"s#	c #72290E",
"t#	c #F7E3C4",
"u#	c #946231",
"v#	c #7D441D",
"w#	c #5E4919",
"x#	c #584917",
"y#	c #584817",
"z#	c #86411F",
"A#	c #5E4A19",
"B#	c #5A4A18",
"C#	c #FCE7C7",
"D#	c #F1DDBE",
"E#	c #7D421D",
"F#	c #5D4A18",
"G#	c #584A18",
"H#	c #6B481B",
"I#	c #72280E",
"J#	c #957D3D",
"K#	c #966B35",
"L#	c #835025",
"M#	c #69491B",
"N#	c #614819",
"O#	c #754C20",
"P#	c #8A5227",
"Q#	c #743515",
"R#	c #752D12",
"S#	c #967E3E",
"T#	c #9C8141",
"U#	c #946E36",
"V#	c #844C23",
"W#	c #69481B",
"X#	c #5C4A18",
"Y#	c #77471D",
"Z#	c #8D5C2D",
"`#	c #95753A",
" $	c #784C22",
".$	c #9B7E3F",
"+$	c #946D36",
"@$	c #835125",
"#$	c #7B431C",
"$$	c #7C451D",
"%$	c #7C461E",
"&$	c #8B5F2E",
"*$	c #99773B",
"=$	c #987E3F",
"-$	c #F6E2C4",
";$	c #9C8542",
">$	c #9B8140",
",$	c #946934",
"'$	c #895127",
")$	c #834A22",
"!$	c #8F5B2D",
"~$	c #98763B",
"{$	c #9B8141",
"]$	c #836A31",
"^$	c #6F5825",
"/$	c #93793B",
"($	c #9C8342",
"_$	c #F5E0C1",
":$	c #ECD7BA",
"<$	c #886A33",
"[$	c #715F29",
"}$	c #998241",
"|$	c #9B8442",
"1$	c #843A1B",
"2$	c #6E2B0E",
"3$	c #896932",
"4$	c #9D8442",
"5$	c #977F3F",
"6$	c #725E28",
"7$	c #7B662E",
"8$	c #9C8341",
"9$	c #76612B",
"0$	c #77622B",
"a$	c #9A8240",
"b$	c #7A652D",
"c$	c #735F29",
"d$	c #9B8241",
"e$	c #705C27",
"f$	c #826C32",
"g$	c #6D5925",
"h$	c #752B10",
"i$	c #8C1E0C",
"j$	c #882711",
"k$	c #7E1C07",
"l$	c #8A4A21",
"m$	c #945E2D",
"n$	c #925A2B",
"o$	c #80421A",
"p$	c #84481E",
"q$	c #935C2C",
"r$	c #945D2D",
"s$	c #925B2B",
"t$	c #82441C",
"u$	c #82451C",
"v$	c #935B2C",
"w$	c #84471E",
"x$	c #81431B",
"y$	c #945D2C",
"z$	c #854A20",
"A$	c #7F4019",
"B$	c #91592A",
"C$	c #874C22",
"D$	c #7E3E18",
"E$	c #905829",
"F$	c #833616",
"G$	c #811C08",
"H$	c #8B2812",
"I$	c #D8BCA3",
"J$	c #F9E3C5",
"K$	c #F1DDC0",
"L$	c #E9D5B9",
"  . + @ # $ # % & * = $ - ; > , @ ' # ) ' ! % % $ > ; ~ ! > > { @ ] & ^ ^ # $ , # + / & ! ( / % { ^   # % _ % # { @ !   : % / # ",
"< ! ~ & % ! $ / # ; # & ! @ & ~ ~ < # [ ) ' ] #   ' & % # @ } - | 1   % > > 2 + 3 @ &   ) 3 % $ @ @ $ < ; @ $ # ' ~ $ /   $ # @ ",
"# { - [ ~ ! 4 ] # & @ / 5 ) { / % % > @ 3 3 ! ) < { + % ]   3   = > ) % 6 @ ! $ [ / > > 3 - # 6 { & 2 | , ~ 2 { & @ + &   5 ] ~ ",
">   7 ~ #   $ ] . $   @ #   $ + ~ { & # $ @ ~ : $ # < / / 3 # [ ! ! # ] & / ! ! $ @     4 3 ~ > & > @ # - & & ! & ) @ & 3 % $ ) ",
"8 3 # - @ # @ ; < ) > - / $ ] : - # # ~ > - ~ [ $ = ] # - : + % & @ - # % > 3 - ~ } % % > % / > % - : < % )     @ ! ' : / $ ~ & ",
"@ / ] / 8 @ @ ' 6 # & - & ! # - @ + } . ! ; + - / $ ] - / # $ & % ) ] $ $ 7   > (   3 ] { &   = < ~ / $ &   + ] > % 5 ] #   $ < ",
"@ - & + ~ 9 > $ $ > ) @ < & ~ ! ~ ' ) ~ > # / $ _ / ~ : / [ $ - % > $ ' $ 2 & ~ }   / $ } ~ 3 ~ ~ ) % &   > & & % [ ] # 2     < ",
"@ 3 ) 3 @ + $ @ - > { & ! $ @ ~ & $ ) ) @ ] $   @ @ > & & / > # 3 & - / { ! & & + ! ( / - $ ~ @ $ ) > 6 # - @ + ~ > < # % %   8 ",
"> + @ ! > # $ < > # ) # ;   > @ @ ) ] { @ - / % ~ - 0 a b b b b b b c & % @ & ! > $ $ & ~ $ [ )   ] d ( 3 $ # # : # & / & # ) ! ",
"& @ % & @ 3 | < ! ! 3 + % ! $ ! / + ) $ + } e f g f h i i i i i i j k l m f m -   # 3 # # ~ - @ # 3 ' 3 { { 5 & & ~ & - ( { > { ",
"  & ( $ ~ 3 ] $ ! $ n #   # % ( + / ) < & # o p p q r s t t t t t u v w p p x y + [   $ ( # - / @ ' % @ < : { # + 3 ' 7 # { < { ",
"# $ $ , > ' % # + ~ , >   } % & ! # ] % z A B C C D E F F G G F H I J K L C M N O & > 2 ! 9 !   [   # $ % # ! % @   & + / > $ $ ",
"#   ] $ $ # & > + @ ] ) / + - ! $ > P Q R S T U V V W X X Y Z `  ...+.@.#.$.%.&.*.=.Q -.&   / # { > / & # 3 3 : < / @ : 3 % ' { ",
"& $ < {   ( $ @ & # > & - - @ & ~ g ;.>.,.'.).!.~.{.].^./.(.` _.:.:.<.[.}.}.|.1.2.3.4.5._ _ < # ! ! @ ; % ( > $ 1   + } ' . # & ",
", { ! > $ $ + + 5 ' $ $ $ ] ! # 6.7.8.9.0.a.b.c.d.e.f.g.h.i.j.:.k.k.l.m...n.o.p.q.r.s.t.u.v.  ~ , 3 # ~ @ d - $ # ] - # $ - @ - ",
"> @ { ) 3 @     + 7 ) > ) > : 6.w.x.y.z.A.B.C.(.D.k.E.E.D.F.G.H.g.E.E.E.I.J.K.L.M.N.O.P.Q.R.S.# ! { @ - + } @ > / % ( ! > & { ~ ",
") 3 @ ~ ~ ~ ~ & > ] / 3 { ] g T.U.V.W.X.Y.Z.`. +.+E.E.E.D.F.G.H.g.E.E.++@+c.#+E.$+%+&+*+=+-+;+>+' ' ~ ;   / - # - $ < @ /   ' ) ",
"% - ,+, ! # @ & / @   _ { '+)+8.!+~+{+]+K.:.^+ +.+E.E.E.D.F.G.H.g.E.E.++@+c./.k./+]+<.(+_+:+Q.u.<+~ @ @ % { ! { > { ~ [ ! % ' & ",
"^ $ > @ % ] @ & / ) ( ! ! [+}+|+1+2+3+4+k./+`. +.+E.E.E.D.F.G.H.g.E.E.++@+c./.g.E.k.k.5+6+7+8+9+% @ $ } ( < ) $ @ _ 3 { | / # # ",
"{ = ) 3 @ , > # $ > & ) 0+R -+a+b+ +K.g.E./+`. +.+E.E.E.D.F.G.H.g.E.E.++@+c./.g.E.E.E.c+d+e+f+g+h+) ! ] ( % % ' > # # ) & ~ ) ! ",
"< - ] @ 3 5 & 7 3 # { $ i+j+'.k+Y.K.h.E.E./+`. +.+E.E.E.D.F.G.H.g.E.E.++@+c./.g.E.E.E.l+m+n+1.o+p+q+] { ( / ~ ; # > % ( # + ] = ",
"~ # ~ @ ! / % + %   r+A t.s+t+u+v+++E.E.E./+`. +.+E.E.E.D.F.G.H.g.E.E.++@+c./.g.E.E.E.w+x+y+z+A+B+C+D+{ } { # [ + + / ~ % @ & > ",
"  @ #   = { > 3   $ 0 p E+F+G+H+I+h.E.E.E./+`. +.+E.E.E.D.F.G.H.g.E.E.++@+c./.g.E.E.E.w+J+Z.K+L+M+N+O+| P+< > ! ~ ~ @ @ % @ & # ",
"$ _ > % & $ { #   - 0 p E+Q+G+H+I+h.E.E.E./+`. +.+E.E.E.D.F.G.H.g.E.E.++@+c./.g.E.E.E.w+R+]+S+T+U+N+O+* { & ; > > @ ! ~ & >   ~ ",
"< % { ! ! ! ) > { @ f p V+Q+W+H+I+h.E.E.E./+`. +.+E.E.E.D.F.G.H.g.E.E.++@+c./.g.E.E.E.w+R+]+S+L+M+N+O+# ! : # @ ~ ! = & 2 ! # ; ",
"( { & ( - < # @ $ g X+Y+Z+`+ @.@+@h.E.E.E./+`. +.+E.E.E.D.F.G.H.g.E.E.++@+c./.g.E.E.E.w+@@3+#@$@%@&@*@=@= # ! 2     # ! / & ] @ ",
"[ 2 6 ; & & $ # ] b -@;@>@I+3+X ,@h.E.E.E./+`. +.+E.E.E.D.F.G.H.g.E.E.++@+c./.g.E.E.E.w+@@'@k.)@!@~@{@q f { ( >   $ $ % ! & & $ ",
"( > ; 3 $   # ) % ]@^@/@(@^.^.X ,@h.E.E.E./+`. +.+E.E.E.D.F.G.H.g.E.E.++@+c./.g.E.E.E.w+@@'@k.D._@:@<@p 0 > ) / # $ { $ @ + # ^ ",
"# # ] & '   ) ; > [@^@}@|@4+^.X ,@h.E.E.E./+`. +.+E.E.E.D.F.G.H.g.E.E.++@+c./.g.E.E.E.w+@@'@k.k.1@2@3@p 0 + @ $ % > # ! [ - 3 # ",
"> > = # ~ # & > < [@^@}@4@k.^.X ,@h.E.E.E./+`. +.+E.E.E.D.F.G.H.g.E.E.++@+c./.g.E.E.E.w+@@'@k.g.5@6@3@p 0 ) ~ / / & % <+& & # & ",
"$ 2 ! > > % ; <+> [@^@}@4@k.^.X ,@h.E.E.E./+`. +.+E.E.E.D.F.G.H.g.E.E.++@+c./.g.E.E.E.w+@@'@k.g.5@6@3@p 0 3 > / 3 3 [ @ ] (   $ ",
"~ ( ' & > ] @   & [@^@}@4@k.^.X ,@h.E.E.E./+`. +.+E.E.E.D.F.G.H.g.E.E.++@+c./.g.E.E.g.l+7@f.k.g.5@6@3@p 0 )   ~ & $ >   ; & [ _ ",
": & < & ~ @ - > # [@^@}@4@k.^.X ,@h.E.E.E./+`. +.+E.E.E.D.F.G.H.g.E.E.++@+c./.g.g.D.8@9@0@a@b@c@5@6@3@p 0 @ ] d@{ ( { # @ % e@_ ",
"$ > & [ % > $ %   [@^@}@4@k.^.X ,@h.E.E.E./+`. +.+E.E.E.D.F.G.H.g.E.E.++@+c./.k.D.f@g@h@i@j@k@l@m@n@3@p 0 & _ <   # # ] > ]   $ ",
"& & @ # ~ + $ ~   [@^@}@4@k.^.X ,@h.E.E.E./+`. +.+E.E.E.D.F.G.H.g.E.E.++@+c./.o@8@g@p@q@r@s@t@u@v@2@3@p 0   - % # @ - 3 $ > 5 & ",
"# ] $ $ 3 ,+) 2 ^ [@^@}@4@k.^.X ,@h.E.E.E./+`. +.+E.E.E.D.F.G.H.g.E.E.++@+c.f.w@x@y@z@A@B@C@D@E@F@G@H@p 0 ! $ / [ > & & [ & ! + ",
"% # & # $ ;   & 6 [@^@}@4@k.^.X ,@h.E.E.E./+`. +.+E.E.E.D.F.G.H.g.E.E.++@+J.b@I@J@K@L@C@M@N@O@P@Q@R@S@p 0 ] > / > < !   ~ { @ # ",
"] + # $ & 5 ) - @ [@^@}@4@k.^.X ,@h.E.E.E./+`. +.+E.E.E.D.F.G.H.g.E.E.++@+J.b@T@U@V@W@X@Y@Z@`@ #.#+#D p 0 !   # _ & # & ! ! > # ",
"# ; /   } &   / # [@^@}@4@k.^.X ,@h.E.E.E./+`. +.+E.E.E.D.F.G.H.g.E.E.++@+J.b@@###$#%#&#*#=#-#;#>#,#D p 0 ] ! & . .   < > [ ~ 3 ",
"@ 3 @ & ^ ! { ! $ [@^@}@4@k.^.X ,@h.E.E.E./+`. +.+E.E.E.D.F.G.H.g.E.E.++@+'#3+)#!#~#{#W@L@]#^#/#(#_#E+p 0 > & & $ & & ) # @ ;   ",
"/ @ > < & /   ) & [@^@}@4@k.^.X ,@h.E.E.E./+`. +.+E.E.E.D.F.G.H.g.E.E.++@+c.K.1@:#<#[#K@K@}#|#1#2#3#4#p 0 # [ - _ ; % : >   ) ! ",
"_ / @ & ~ + : : 3 [@^@}@4@k.^.X ,@h.E.E.E./+`. +.+E.E.E.D.F.G.H.g.E.E.++@+c.5#6#7#8#9#0#a#b#c#d#e#f#o+p 0 ]   & _ # g#[ : / # $ ",
"# ) % > @ / ! % @ [@^@}@4@k.^.X ,@h.E.E.E./+`. +.+E.E.E.D.F.G.H.g.E.E.++@+c.h#i#j#k#l#m#n#o#p#q#r#s#E+p 0 > = t#[ # @ # - % / & ",
"$     @ [ ~   < $ [@^@}@4@k.^.X ,@h.E.E.E./+`. +.+E.E.E.D.F.G.H.g.E.E.++@+c.h#u#v#w#x#y#y#y#x#q#z#s.E+p 0 )   ( # # ! 5 ! ] ] - ",
"$ { 8 ! $ # 2 $ : [@^@}@4@k.^.X ,@h.E.E.E./+`. +.+E.E.E.D.F.G.H.g.E.E.++@+c.h#u#j#A#B#B#B#B#H+q#z#s.E+p 0 & ) C#& , { ~ # { ! $ ",
"$   - ~ ( # D#< @ [@^@}@4@k.^.X ,@h.E.E.E./+`. +.+E.E.E.D.F.G.H.g.E.E.++@+c.h#i#E#F#H+B#B#B#G#H#r#I#E+p 0 % { {   ~ ~ @ ! ^ 3 = ",
"! { @ / # } & $ ; [@^@}@4@k.^.X ,@h.E.E.E./+`. +.+E.E.E.D.F.G.H.g.E.E.++@+c.J#K#L#M#}.H+H+B#N#O#P#Q#R#p 0 ! ! > #   [ ( ( P+1 & ",
"' ) - & @ # 8 @ $ [@^@}@4@k.^.X ,@h.E.E.E./+`. +.+E.E.E.D.F.G.H.g.E.E.++@+c.S#T#U#V#W#X#X#A#Y#Z#`# $<@p 0 ! _ > $ ] / $ ] : = % ",
"} & = 2 # # % $ ! [@^@}@4@k.^.X ,@h.E.E.E./+`. +.+E.E.E.D.F.G.H.g.E.E.++@+c./.c@.$+$@$#$$$%$&$*$=$2@3@p 0 - % -$( & @ @ {   ) ~ ",
"& 2 { ! > ! !   : [@^@}@4@k.^.X ,@h.E.E.E./+`. +.+E.E.E.D.F.G.H.g.E.E.++@+c./.g.;$>$,$'$)$!$~$k.5@6@3@p 0 @ @ : ] % @ ! $ ; 6 @ ",
"# # & $ 8 3 ] < $ [@^@}@4@k.^.X ,@h.E.E.E./+`. +.+E.E.E.D.F.G.H.g.E.E.++@+c./.g.E.E.{$]$^$/$($g.5@6@3@p 0 ] : [ + ~ @ /   ] < % ",
"% $ / > ^ ) + ! _$[@^@}@4@k.^.X ,@h.E.E.E./+`. +.+E.E.E.D.F.G.H.g.E.E.++@+c./.g.E.E.E.w+@@_.k.g.5@6@3@p 0 $   <+: ! = > ! ~ ! & ",
"> & 2 < { # % ' ; [@^@}@4@k.^.X ,@h.E.E.E./+`. +.+E.E.E.D.F.G.H.g.E.E.++@+c./.g.E.E.E.w+@@'@k.g.5@6@3@p 0 3 & $ > % ! % % :$+   ",
"% t#2 ) @   > @ & [@^@}@<$k.^.[$,@h.E.E.g..+`. +}$;$E.E.l.F.G.:.g.E.E.|$S+c./.k.E.E.E.w+@@'@k.k.1@6@3@p 0 + - > ~ & % [ _ ~ ~ & ",
"3   = 8 / ! ! @ ~ b 1$2$3$4$5$6$7$D.($8$($1@9$0$/+($8$($a$b$c$m@E.8$($d$@+e$S#4$8$8$8$f$g$3+4$E.m@n@h$q f @ _ ) % @ # ( > / ^ / ",
"[ > ~ _ # { ' $ ] i$j$k$l$m$n$o$p$q$r$r$m$s$t$u$v$r$r$r$q$w$x$s$m$r$r$y$z$A$B$m$r$r$r$C$D$E$m$m$n$F$G$H$I$] + _ ] $ % ! # @ { / ",
"- % ,+# # > @ @ % ; # $ ! { - # ~ & ! # ) > ' [ & - # + ) ' ) # ! > - ] - > @ ) ) ! < # [ %   & # / - : )   $ / - @ % # # - / @ ",
"@   > : + & ) [ } ) ) = 3 . _ - / + ! @ ~ & ; - + =   % ~ ~ - % % > # > < % ~ . +   ! 3 [ _ ~ % . ] # % & $ > 8 ! < # @ : < ! + ",
"- @ ' &   <   @ @ ] & # : 3 @ { { ; % 6 : - @ ! > & ~ ' # + [ # 5 $ @ / @ # ~ @ . _ ) # ]   ^   ! & #   # @ / { $ ! / ~   J$! [ ",
"@ % $ { { { % $ > { & [ & $ > & d ! ~ + _ # ] > & % [ { > ] ~ # $ ! { ! & @ ) 3 ] ] & & ] @ # : ( 6 @ # + ! % [ ! & 3 ( & > $ $ ",
"& { 6 > > ! #   n ( > 3 @ > ~ ^ ! ! = ~ # & _ - > { ) $ { $ # + + @ %   @ % & -   { @ $ [ @ { # # ' > ) + $ { % > : ! ! & # # # ",
"~ $ @ @ ! ( & ! # # [ / $ ] > + $ # - [ { 5 3 > $ <+$ [ > ' ] ! $ $ $ ~ # [ # % @ | 5 ~ ! % + - $ ] > [ & > $ ) K$  ] @ ] @ / ( ",
"! > % ) $ ~ ) ; ! & % [ [ } # ~ / # + @ [ > & = ) 3 + @ % # { <+{ 1 # / : : ' : 3 ' ] L$# _ . . - ~ } @ % & @ - @ 3 @ 3 ! # $ & ",
"P+{ [   ! . ; $ , ! $ ] # @ @ : 3 ) @ @ @ ) !   $ & ~ {   ~   $ ] $ @ 8 $ 8 & , & !     $ ) - # ( !   - @ : ! % , ! > $   { + # "};
