/* XPM */
static char * pill_2_xpm[] = {
"64 64 222 2",
"  	c #F0DCBE",
". 	c #ECD8BB",
"+ 	c #F5E0C2",
"@ 	c #F2DEC0",
"# 	c #F3DEC0",
"$ 	c #F2DDBF",
"% 	c #F4DFC1",
"& 	c #F3DFC0",
"* 	c #F0DBBE",
"= 	c #EDD9BB",
"- 	c #EFDBBD",
"; 	c #EDD9BC",
"> 	c #F6E1C3",
", 	c #F1DCBE",
"' 	c #F1DDBF",
") 	c #F0DBBD",
"! 	c #F1DCBF",
"~ 	c #EEDABC",
"{ 	c #EEDABD",
"] 	c #EFDBBE",
"^ 	c #EAD6B9",
"/ 	c #EED9BC",
"( 	c #F9E4C5",
"_ 	c #EDD8BB",
": 	c #EBD7BA",
"< 	c #E9D5B9",
"[ 	c #F2DDC0",
"} 	c #EFDABD",
"| 	c #F5E1C3",
"1 	c #F6E1C2",
"2 	c #F4E0C2",
"3 	c #F1DDC0",
"4 	c #F5E1C2",
"5 	c #F8E3C4",
"6 	c #F7E2C4",
"7 	c #F8E3C5",
"8 	c #F3DEC1",
"9 	c #F7E2C3",
"0 	c #F9E3C5",
"a 	c #F3DFC1",
"b 	c #F2DEBF",
"c 	c #F4E0C1",
"d 	c #ECD8BA",
"e 	c #F4DFC2",
"f 	c #F7E3C4",
"g 	c #ECD7BA",
"h 	c #F5E0C1",
"i 	c #F6E2C4",
"j 	c #F6E2C3",
"k 	c #E2CFB3",
"l 	c #E3CFB3",
"m 	c #D6C3A8",
"n 	c #8A7C6A",
"o 	c #352A23",
"p 	c #38261D",
"q 	c #36241B",
"r 	c #3E332B",
"s 	c #948673",
"t 	c #DDCAAF",
"u 	c #F1DDBE",
"v 	c #FCE7C7",
"w 	c #A89983",
"x 	c #4E392D",
"y 	c #C1977B",
"z 	c #F1BE9B",
"A 	c #FFC9A4",
"B 	c #FEC8A3",
"C 	c #EDBB98",
"D 	c #B89075",
"E 	c #413026",
"F 	c #BAA992",
"G 	c #AB9B86",
"H 	c #6F5544",
"I 	c #E9B895",
"J 	c #5B4436",
"K 	c #BDAD95",
"L 	c #D4C2A8",
"M 	c #453127",
"N 	c #F0BD9A",
"O 	c #FFCDA6",
"P 	c #FFD8AB",
"Q 	c #FFDDAD",
"R 	c #FFDBAC",
"S 	c #FFD3A8",
"T 	c #E4B492",
"U 	c #3D3028",
"V 	c #E4D0B4",
"W 	c #EBD7BB",
"X 	c #948672",
"Y 	c #B78F74",
"Z 	c #FFD5AA",
"` 	c #FFE8B3",
" .	c #FFE9B3",
"..	c #FFE2AF",
"+.	c #FFCBA5",
"@.	c #9E7C64",
"#.	c #AA9A85",
"$.	c #50453B",
"%.	c #E5B593",
"&.	c #FFDEAE",
"*.	c #D5A888",
"=.	c #75695A",
"-.	c #1B0A07",
";.	c #F9C5A0",
">.	c #FFD6AA",
",.	c #E7B795",
"'.	c #4F443A",
").	c #150000",
"!.	c #FAC5A1",
"~.	c #E8B996",
"{.	c #483D34",
"].	c #E8B896",
"^.	c #4A3F35",
"/.	c #FFD5A9",
"(.	c #FFDFAE",
"_.	c #FFE0AE",
":.	c #FFE4B1",
"<.	c #FCC6A2",
"[.	c #EFBC99",
"}.	c #F3BF9C",
"|.	c #FFD3A9",
"1.	c #E8B795",
"2.	c #493E35",
"3.	c #F9E4C6",
"4.	c #160000",
"5.	c #C69A7D",
"6.	c #94715B",
"7.	c #604537",
"8.	c #210101",
"9.	c #200000",
"0.	c #230000",
"a.	c #220000",
"b.	c #1F0000",
"c.	c #230403",
"d.	c #614638",
"e.	c #95725C",
"f.	c #B68E73",
"g.	c #E9D6B9",
"h.	c #1D0000",
"i.	c #7F0000",
"j.	c #C70000",
"k.	c #E40000",
"l.	c #E60000",
"m.	c #D00000",
"n.	c #D40000",
"o.	c #D30000",
"p.	c #CF0000",
"q.	c #C80000",
"r.	c #BA0000",
"s.	c #A80000",
"t.	c #780000",
"u.	c #41342B",
"v.	c #F5E0C3",
"w.	c #DBC8AD",
"x.	c #3B0000",
"y.	c #FD0000",
"z.	c #FF0000",
"A.	c #F10000",
"B.	c #DE0000",
"C.	c #FC0000",
"D.	c #3A0000",
"E.	c #E2CFB2",
"F.	c #420000",
"G.	c #DFCBB0",
"H.	c #DCC8AE",
"I.	c #DFCCB0",
"J.	c #D8C5AA",
"K.	c #DCC9AE",
"L.	c #DECAAF",
"M.	c #E2CEB2",
"N.	c #F00000",
"O.	c #D9C7AB",
"P.	c #EF0000",
"Q.	c #E0CDB1",
"R.	c #DAC7AC",
"S.	c #E1CEB2",
"T.	c #FE0000",
"U.	c #F50000",
"V.	c #E10000",
"W.	c #E1CDB2",
"X.	c #F0DCBF",
"Y.	c #3B2B24",
"Z.	c #D50000",
"`.	c #E62828",
" +	c #FD3838",
".+	c #3B2C24",
"++	c #8D7F6D",
"@+	c #BF0000",
"#+	c #DB1515",
"$+	c #E12020",
"%+	c #E52222",
"&+	c #FF2727",
"*+	c #8C7D6B",
"=+	c #D7C4A9",
"-+	c #4E0A07",
";+	c #FA0000",
">+	c #DD0000",
",+	c #DA1313",
"'+	c #FE4343",
")+	c #FF4444",
"!+	c #FC1C1C",
"~+	c #4C0906",
"{+	c #D2C0A5",
"]+	c #AF9F89",
"^+	c #720000",
"/+	c #FE1010",
"(+	c #FF3E3E",
"_+	c #FF3838",
":+	c #F10808",
"<+	c #A89882",
"[+	c #4D0907",
"}+	c #BE0000",
"|+	c #4C0907",
"1+	c #B0A089",
"2+	c #D3C1A7",
"3+	c #8C7D6C",
"4+	c #3C2D25",
"5+	c #390000",
"6+	c #3A2B24",
"7+	c #D7C5AA",
"8+	c #E0CCB1",
"9+	c #EAD6BA",
"  . + @ # $ % & * % = - ; @ % >   ; , # @ @ % ' & ' ) # ) - # ! # @ ~ @ + ~ ' # @ % , - - - , { = - -   ! # % & # ] ^ % @ / + ( ",
"' #   % { - { - ; - ' * - _ ~ ; ^ ^ :   < ! [ { = [ = = }   | + 1 +   * - . { , 2 ' $ / - .   } ~   _ / / * ' % ] , ~ # , * $ % ",
"> } - ! - ! @ 3 , # $ ' / $ ! # ; . * % ~ 4 5 - *   /   ~ # # # % ! [ $ / # 1 # $ { 4 + / ;   # . $ ! # } /     % ' > % - - # ~ ",
"      ' % % = $ * + # . , $ [     + - / # - + @ ; ' * - @ * - . .   # + # , + $ ; : '   ~ 2 % % 6 ~ $ - { $ > 7 @   % $ $ 8 + ' ",
"# # $ ' > { ' % / * % .   - 8 > =   - ! ' ' ! ! { , - ' % + % #   ~ ! $ + / * ' $ !   : . ~ % 9 ' $ # ' / ' + $ # * + + + # * - ",
"/ % 0 @ ~ } % # + } -   @   ' % @ 6 @ !   , : ^ - ~   - } - # 4   / .   [ ~ ' $ % - ; = 8 * ] + + - { =   ' ! - - @ a @ ' [ - ; ",
". % a = -   a % ) $ # ' *   ! ^ * ~ : / { % @ . ^ ~ * a $   $ * * ; ~ ~ * @ 2 . ; ] ' ~ - % . } ; : ^ { 2 , , _ / , ' . = $ @ - ",
"- } ;     * - ; } # @ , = ; }   ' @ * /   a % , , - $ ; ! ; $ %   , [ , .   ; ' / [ $ ,   % ' ~   ; + % #   ] * - - $     b * ; ",
"} + -   % * # ! : . ! . . , - ' ,   * . @ $ ! } # * a ' # & # _ } % c ! . * } #   # % % -   * =   ~ $ . { , ~ ! # [ +   : ~ $ / ",
"} 6 } $ >   - * , : - ; ! a   * , - / % @   # - + + ! , @ c %   - ! ~ } - - > 9 ' # > - . } [ @ . $ ! $ a 8 - ~ - % % } ) 2 @ { ",
"' ~ ~ : / * ' ~ $ ; .     @ ' ~ [ > + @ - { * : $ > % $ d ~ @ a = . ~ - $ @ $ ! + e % / ] - ' - ; -   ' -   # ' - $ @ - , c f * ",
"@ . g * * % * $ # ' { / } ! 2 { > % # %   } $ = [ * - # ! % - - - # * ) - ! - # # # $ ; @ # $ { ] % @ $ . $ > ] [ *   + a c ' $ ",
"' % ~ % $ 2 % = 1 @ # ! ; * ! % e $ 4   : ~ # } = . / ' # , ' %   ) - } ' . @ , . - # ' + ' % + > > $ , : * ' h % . , 6 $ } # * ",
"* a ! @ } - ~ . / = ! * ! . ~ /   ~ ; : _ ^ '   - $   % [ $ @ % # ' , *   ~ % 6 ~ ' $ ! > &   % + + !   ^ / $ # a ! { ) # '     ",
"- 8 ] # % - * ! = - -   # + % ! ' # # $ , ]   ! }   4 ! } ~ # + e   } $ a ; { + 9 5 $ / c   ] ; ~ + - % 8 # @ = @ % % $ % + c ' ",
"~ , @ + - - ' > i * ; - ! { + @   } % > @ = # ' '   % c [ ' % # #   2 > ' * * ' ' % + 6 , - : : } $ + , # { ! % # *     c 2 ' _ ",
"* 2 = ! # } ! # $ : % $ # ' / } / } } + + - ) ! ' % ' { / ' @ - > ! ~ ;     ' ~ * - ; ; - ] ~ } '   $ ] & $ - # - )   - ' ; , [ ",
"' | ( > > / @   $ % % ' ~ * % ,   ; # # j , ' ,   ! @ ~ - * ) k l { a # %   ; # > @ ' = ) ' ~ ! # 9 .   % @ - ] # ' _   } - + % ",
"2 { 6 % - ~ ~ @ + + * ( * - # - $   * ] _ { / $ ! * $ * m n o p q r s t @ @ 8 # + > $ @ - ' -   # @ @ $ @ ; = - a u   > ~ ; @ # ",
"# % +   ~ + & ' v , ' 6 ] b ; - = $ ' ! { + g d { { ^ w x y z A B C D E F / *   * + ' ~ 6 % % c # - $   + !   = # c   # % ) + # ",
"; ! ! % 4 %     > @ , ~ } c - % $ ; 1 '   a ( 6 [ . G H z A A A A A A I J K   , . ~   ' 1 / # % ! . ~ ! ' $ $ # a @ ~ / - @ @ # ",
"' } * ;   -   / f 2 $ + / $ *   @ ' $ % ~ ' # ! - L M N A A O P Q R S A T U V -   - g ! a ' - , $ ' . #     + - * % } - $ * ,   ",
"#   } = / W   : ' @ ! ~ @   * ! % # - # - * ' { } X Y A A Z `  . . . ...+.@.#.[ a *   6 % @ % $ ~ ! # > % + a { = = . ~ ' - } : ",
"% , @ $ = * ] : ; /   ' [ @ $ $ ' # -   ! [ - / # $.%.A O `  . . . . . .&.*.=.  a -   > % > $ ! ! ' @ $ ~ * ' ' , @ } ' a $ - } ",
"@ ] -   , ' ' # ' ' $ , - + a '   [ * * } {     ) -.;.A >. . . . . . . .` ,.'.' ' - ! % 4 # { * # ' % 9 [ ' ! # % + % 6 ' - { - ",
"{ ~ / $ a @ ^ ^ ' % ! $ $ * . - / } - = ' $ } a / ).!.A P  . . . . . . . .~.{.- - - 5 +   = '   ' , # * - +     } @ ' _ @ } ]   ",
"  $ % % '   ' :   @ % - $ } % ' ; - , / e 2 , $ d ).!.A P  . . . . . . . .].^.a @ $ @ # [ - . > ~ ) *   +   * - ; , 4 ' #   . ! ",
"  - + ~ @ % a $ } $ ! -   ] - ' $ # }   > > # ' ~ ).!.A /.(.Q Q Q _.:.`  .].^.+ $ * ; , @ - - % ~ - $ ~ - . @ 8 ' @ ] #   '   * ",
". % ' / ' ' $ / } # % @ % % ' * + > * } 8 + + ! d ).!.A A <.N [.[.}.B +.|.1.2.9 7 + ! { $ / ' # - ; } } ~ = > 6 c , b { # # !   ",
"' 4 $ # { ; -   * ; @ #   - # + $ 3.@ ~ ] /   ' - 4.5.6.7.8.9.0.a.b.c.d.e.f.^.} c % = ; . * # a $ , @ % '   # @ ~ # . ~   - ' ' ",
"# @ ! $ !     @ a : ' [ { -   @ # + * '   ' - } g.h.i.j.k.l.m.n.o.p.q.r.s.t.u.{ } ] }   a a % + $ > ' - % # + @ * # $ * / ' $ # ",
": g.* -   + > + v.! - * } ' ~ ; * ' ~ - ~ ~ W , w.x.y.z.z.A.n.n.n.n.n.n.B.C.D.E., @ ~ 8 # # ' @ ; ' # [ ] ] -   $ ; - ~ ' a ' = ",
": / ' ] @ $ # ' ~ @ , - ' # % - ~   / ; ~ { ! ' t F.z.z.z.A.n.n.n.n.n.n.B.z.F.G.# - @ ) # # !   ' - ! , - @ - ' @ - ! $ ' [ > ~ ",
"# @ > ! - / { { } $ { a ; ~ $ a ;   * - @ + %   H.F.z.z.z.A.n.n.n.n.n.n.B.z.F.I.' = ~ . % 7 6 * % $ ~   = ~ . $ 1 ] * $ $ % c # ",
"'   ' ' 1 * ' } } ~ , ! [ ! - { ; ^   + , - - - J.F.z.z.z.A.n.n.n.n.n.n.B.z.F.w._ / # { } @ ! * . ' - + % ~ * a $ '   ~   2 $ $ ",
"  { ; / %   $ * # - . - a = } ! * - * ' { * } ! K.F.z.z.z.A.n.n.n.n.n.n.B.z.F.L.; / +   - # $ ; - $ ~ - - ~ ~ $ ] , @ [ ' !     ",
"6   . - # + #   } , $ $ $ ! - } - a } - a   ! - M.F.z.z.z.N.n.n.n.n.n.n.B.z.F.H.+ ' ;   ! ~   @ % @ $ - ~ # , * ,   @ # { ] $ > ",
"# ' ' % * # # @ $ > + + - - !   ' . % + 4 { ~ [ O.F.z.z.z.P.n.n.n.n.n.n.B.z.F.Q.+ /   # 4 - }   c - ; / % $ 8 !   # ' ' ] 8 c / ",
"- ! ' } %   @ @ c %   2 ' { % ; ' { [   % . % ! R.F.z.z.z.A.n.n.n.n.n.n.B.z.F.K.2 # c @ a @ + + % c { a % $ * # -   a ; > ' + > ",
"]   % c ' 2 % ~ -   = %   { ~ # > ' } ~ - - }   S.x.T.z.z.U.n.n.n.n.n.n.V.T.x.W.- } 2 # - - ! > }   . = # { - + $ , % % % + * a ",
"~ @ $ ' ~ % - $ $ ] ' + X.= ; .     ' + { ^ . / : Y.N.z.z.C.Z.n.n.n.n.`. +N..+~ } ; = ~ ; % ' @   ! . ] % ^ ; @   + # ' * $ : # ",
"  ' - * - - ~ ~ % $ a ( 5 # $ [ { + # 9 a = '   : ++@+z.z.z.V.n.n.#+$+%+&+@+*+* ' ! - } # 7 + 2 % { , - - , # @ { $ + 2 @   - @ ",
"$ ' - * ~ } . . /   + _ + + + + - $ !   ! @ -     =+-+A.z.z.;+>+,+'+)+!+A.~+{+  } ; ' 8 % + 6 / _ _ % ! % 4 @ * . * } % - ~   ~ ",
"2 ! .   > * $   ] ~ } > + ! a * * - ; # % 6 # $ ' ; ]+^+A.z.z.z./+(+_+:+^+#.} } : _ ! } !   - -   - + - # +   { d ' 4 { - ! ; a ",
"% , ~ ' ,     $ [ * * > ! % , -   ~ , ' #   ~ ~   @ ' <+[+}+P.T.T.P.}+|+1+% = # + * . / * } .   % $ % ! , ' $ #   $ & - { , 2 + ",
"    } 5 + { : - # , a > _ # - * = ! - * . ' - . { % $   2+3+4+5+5+6+++7+9 9 $ * $ / } ! ' ~ ^ ]   '   % % > , } ' - ! * - $ # 6 ",
"' [ * % / ~ + $ + % + * - - ~ 1 ! ~   $ @ a - ~ ~ * '   @ 4 h 8+S.- } ~ #   $ = [ - ' > a ' = . #   # + : @ - } ' -   % & b ; * ",
", [ @ } - a # ;   ; } @ ] ~ [ [ , , / . 4 -   @ . ' 2 $ ! a ' ; . & > - % - = { } ' > ~   } $ ! ; ] ! + { } ! $ ' ~ ~ ~ ~ - { , ",
"~ + ' $ % > * } $ - _ . ; - + %   # @ , - a $ $ / ~ { - . ~ : < < a 5 / . ; , _ ' * $ 9 2 { - ! e = $ , $ , d . @ @ - { , + - $ ",
"; - ; #   ; !   # ; 9 - ~   { & ~ @ '   ! $ = = ' - ~ ~ + - ; . ~   $ - ~ + 6 c ' ! # > 9 % # {   % ! # # # [ 4 . . # # $ % + & ",
"'   ^ [ _ . @ | # $ > * ] - % %   a : :   - : ~ * * * ~ - # - ; # @ % % ; - & $ $ ' * + * . , ~ ' - ; ; ' $   ' - # > @ + a # ' ",
"+ [ * { = - } a = { {   ' } $ +   } @ ' ! = { # , ; , { ' ; - { @ : > $ $ % % { ! [   { ~ ; $ # % ; . } , ! - . $ '   # # ! @   ",
"# # $ } . ' @ - * %   * #   @ / @ % j % c $ ' {   , > + @ a - - $ / ]   $ v.% # % ' - > * !   % ' * _ @ $ & ~ .   * [ $ & # #   ",
"+ a +   d [ { .   + = a - * [ - } ;   > # @ / . # @ +   ~ ' ~ % , ) - # _ 9+, ! # @   ' a , } . > *   @   7 # % # ! { ~ # > ' @ ",
"+ $ + > ; ' ~ ' ' 4 + + { [ {   - ; ~     {   @ ; : b =   : = ; ,   { } / - - * . ; _ . # , . } % # % * . { % % a 5 { - ' * - ' ",
"% ,   ' } '   =     # { > 9 ! @ , / # ~ ' # # $ % ' - * ' # * = ^ ' ' ! % [ ; ~ * } ; - + ! , - - $ @ ]   ,   $ a #   $ % - . $ ",
") @ * *   a $ ~ . - ;   8 $ , # - ~ # ; } > % . ' ' % + } ; ' {   $ } ' ' $ - - @ # ! - , , # ' ~ - # % ' + $ ; - # . - { , { - ",
"a @ @ c   ! / * ' ' $ @ ' * , ~ ~ { ~ _ # } @ _ ~ ' c # [ # $ * ; # / } = ~ } : # }   $ ~ , [ ~ % ~ ' a - , $ # # $ j ~ . ' ; - ",
"a # @   ! 4 * $ ! . @ ' # } ~ a 2 @ ' + ! { @ > $ @ d # # ! , * ' #   } ; ! # } ; . ] % ^ _ . - ;   % ' ; '   8 [ - - ) } ! } - ",
"' ~ # } = [ % - @ @ , * a = ; * $ } * $ * * _ ~ ; { $ *   ; - ' * . = ;   ! 2 # / ~ ; $ ~     ; = ! # } ; $ , a ] -   - ;   { ) ",
", # * { ' - , ' % ' ' ;   - $ ' $ ~ { e @ @ - # % % } ' !   % % /   { } } a   # = ~ - #   ' + ~ . # @   - @ # ^ ! # @   ~ d @ $ ",
"~ ! 4 @ ' . - ' + c ~ & 5 c ' + 8   ; { $ $ } / # % - 8 * , $ 2 @ { @ ! * . + a , % { { - $ * * } + , 4 } - '   ! e % ~ / ; +   ",
"-   # @ } # ~ [   # - ] a # - - # * { , @ ' - { . c $ $ * @ | 5 ; _ -   * ' [ @   ! [ , /   a ~ ~ ' - % '   ]   } # % * ' ~ % a ",
"  } * = @ % - +   * : *   @ 6 + * } > % ' } .   & #   6 6 ' ! - + $ $ % ~ ] $ # * * % [ ,   [ - & $ ] ; # 2 X.' *   #   - . ^ @ "};
