/* XPM */
static char * pill_4_xpm[] = {
"64 64 222 2",
"  	c #F0DCBE",
". 	c #EFDBBD",
"+ 	c #EEDABC",
"@ 	c #F1DCBE",
"# 	c #F1DDBF",
"$ 	c #F3DFC1",
"% 	c #F0DBBD",
"& 	c #F4DFC1",
"* 	c #F5E0C2",
"= 	c #F3DEC0",
"- 	c #EDD9BC",
"; 	c #F4E0C2",
"> 	c #F2DDBF",
", 	c #EFDBBE",
"' 	c #F7E2C4",
") 	c #EBD7BA",
"! 	c #ECD8BB",
"~ 	c #EEDABD",
"{ 	c #F2DEC0",
"] 	c #F0DBBE",
"^ 	c #EFDABD",
"/ 	c #EED9BC",
"( 	c #F6E1C3",
"_ 	c #F1DCBF",
": 	c #F2DDC0",
"< 	c #E9D6B9",
"[ 	c #F5E1C2",
"} 	c #F5E1C3",
"| 	c #F3DEC1",
"1 	c #EAD6B9",
"2 	c #F9E4C5",
"3 	c #EDD9BB",
"4 	c #ECD7BA",
"5 	c #F9E3C5",
"6 	c #F4E0C1",
"7 	c #F8E3C4",
"8 	c #ECD8BA",
"9 	c #EDD8BB",
"0 	c #F6E1C2",
"a 	c #EBD7BB",
"b 	c #F3DFC0",
"c 	c #F1DDC0",
"d 	c #F5E0C3",
"e 	c #F7E3C4",
"f 	c #FCE7C7",
"g 	c #F6E2C4",
"h 	c #F7E2C3",
"i 	c #F0DCBF",
"j 	c #F2DEBF",
"k 	c #F4DFC2",
"l 	c #F9E4C6",
"m 	c #F6E2C3",
"n 	c #E9D5B9",
"o 	c #E1CEB2",
"p 	c #DAC7AC",
"q 	c #D9C7AB",
"r 	c #E2CEB2",
"s 	c #DCC9AE",
"t 	c #D8C5AA",
"u 	c #DCC8AE",
"v 	c #DDCAAF",
"w 	c #DBC8AD",
"x 	c #D7C4A9",
"y 	c #8D7F6D",
"z 	c #3B2B24",
"A 	c #3B0000",
"B 	c #420000",
"C 	c #1D0000",
"D 	c #160000",
"E 	c #150000",
"F 	c #1B0A07",
"G 	c #50453B",
"H 	c #948672",
"I 	c #D4C2A8",
"J 	c #AF9F89",
"K 	c #4E0A07",
"L 	c #BF0000",
"M 	c #F00000",
"N 	c #FE0000",
"O 	c #FF0000",
"P 	c #FD0000",
"Q 	c #7F0000",
"R 	c #C69A7D",
"S 	c #FAC5A1",
"T 	c #F9C5A0",
"U 	c #E5B593",
"V 	c #B78F74",
"W 	c #453127",
"X 	c #AB9B86",
"Y 	c #A89882",
"Z 	c #720000",
"` 	c #F10000",
" .	c #C70000",
"..	c #94715B",
"+.	c #FFC9A4",
"@.	c #F0BD9A",
"#.	c #6F5544",
"$.	c #A89983",
"%.	c #D3C1A7",
"&.	c #4D0907",
"*.	c #E40000",
"=.	c #604537",
"-.	c #FFD5A9",
";.	c #FFD8AB",
">.	c #FFD6AA",
",.	c #FFCDA6",
"'.	c #F1BE9B",
").	c #4E392D",
"!.	c #D6C3A8",
"~.	c #8C7D6C",
"{.	c #BE0000",
"].	c #FC0000",
"^.	c #F50000",
"/.	c #EF0000",
"(.	c #E60000",
"_.	c #210101",
":.	c #FCC6A2",
"<.	c #FFDFAE",
"[.	c #FFE9B3",
"}.	c #FFE8B3",
"|.	c #FFD5AA",
"1.	c #C1977B",
"2.	c #8A7C6A",
"3.	c #F5E0C1",
"4.	c #3C2D25",
"5.	c #FA0000",
"6.	c #E10000",
"7.	c #D50000",
"8.	c #D40000",
"9.	c #D00000",
"0.	c #200000",
"a.	c #FFDDAD",
"b.	c #352A23",
"c.	c #E0CCB1",
"d.	c #390000",
"e.	c #DD0000",
"f.	c #230000",
"g.	c #EFBC99",
"h.	c #38261D",
"i.	c #E2CFB3",
"j.	c #FE1010",
"k.	c #DA1313",
"l.	c #D30000",
"m.	c #220000",
"n.	c #FEC8A3",
"o.	c #36241B",
"p.	c #E3CFB3",
"q.	c #3A2B24",
"r.	c #FF3E3E",
"s.	c #FE4343",
"t.	c #DB1515",
"u.	c #CF0000",
"v.	c #1F0000",
"w.	c #F3BF9C",
"x.	c #FFE0AE",
"y.	c #FFDBAC",
"z.	c #EDBB98",
"A.	c #3E332B",
"B.	c #FF3838",
"C.	c #FF4444",
"D.	c #E12020",
"E.	c #C80000",
"F.	c #230403",
"G.	c #FFE4B1",
"H.	c #FFD3A8",
"I.	c #B89075",
"J.	c #948673",
"K.	c #D7C5AA",
"L.	c #4C0907",
"M.	c #F10808",
"N.	c #FC1C1C",
"O.	c #E52222",
"P.	c #E62828",
"Q.	c #BA0000",
"R.	c #614638",
"S.	c #FFCBA5",
"T.	c #FFE2AF",
"U.	c #E9B895",
"V.	c #413026",
"W.	c #B0A089",
"X.	c #FF2727",
"Y.	c #FD3838",
"Z.	c #DE0000",
"`.	c #A80000",
" +	c #95725C",
".+	c #FFD3A9",
"++	c #FFDEAE",
"@+	c #E4B492",
"#+	c #5B4436",
"$+	c #BAA992",
"%+	c #EAD6BA",
"&+	c #AA9A85",
"*+	c #4C0906",
"=+	c #780000",
"-+	c #B68E73",
";+	c #E8B795",
">+	c #E8B896",
",+	c #E8B996",
"'+	c #E7B795",
")+	c #D5A888",
"!+	c #9E7C64",
"~+	c #3D3028",
"{+	c #BDAD95",
"]+	c #D2C0A5",
"^+	c #8C7D6B",
"/+	c #3B2C24",
"(+	c #3A0000",
"_+	c #41342B",
":+	c #4A3F35",
"<+	c #493E35",
"[+	c #483D34",
"}+	c #4F443A",
"|+	c #75695A",
"1+	c #E4D0B4",
"2+	c #E1CDB2",
"3+	c #E0CDB1",
"4+	c #DECAAF",
"5+	c #DFCCB0",
"6+	c #DFCBB0",
"7+	c #E2CFB2",
"8+	c #F8E3C5",
"9+	c #F1DDBE",
"  . + @ # $ $ % & * * = * # - + @ #   & ; >   + , . = '   # = ) ) = # !     ~ { & = # - = ; # ] + . ] # { # ^ ^ . ! / =   ( #   ",
"^   _ = + = { { @ > $ = :   . * : :   @ _ # # {   _ #   ~   { / < { [ & . > + , @   ^ _ & ~ } ; @ | $ & ! + ' * ^ & & =   ^ = ! ",
"] = [ ] = { { ]   * * > ] 1 - # { ] ^ + ! . . > & # # ! - # ( # ] _ > # * & / . { ^ ] _ * ' 2 3 { , _ + 4 + ^ . - $ 5 >   .   * ",
"3 { { ~ ^   6 ] # (   ^ ~ : = > ^ & 7 #   ] ] # 6 ^ & . / # _ , . > = / + & >   > 3 - &   & ( _ * = { & ] ) >     3 { # # _ & { ",
"{ ^ # # 3 _     ^ - 8 ! 3 9   & . / * @ ( + . + # & ] = & 0 . {   _ ~ # { # $ @ 3 /   [ + . ( = . & ^ > ] / ( &   . + ( & . ~ = ",
"& = ! . : [ _ $ # # : # . ! - ( $ + ~   ] ^ . & ;   = *   ] / > *   - # &   { # ] a . & * + / ^ . . . ; & ]   ] ]   ^ ~ & _ . > ",
". + . @ & ] / >   + ~ { ^ { _ ] = * )   > ! + . & { = = > # ~ = (   . > $ # 1 # ,       b + { _ # ] + & ] # . = . $ & # 3 { ~ & ",
"* : # # . > ] + 3 # ! . $ }   ^ - > . >   ! + > + { {   ] ^ ~ # * {   / > ) 1 = ) ) /   # {   = ( _ ! 3 > + ] _ - & = & > c . b ",
"    * & { _ # !   #   ] 3 = = >   * = : , / & > . 6 > ^ = ^ ^ + d $ ] ^ ^   # # - # e ( f * > > g 3 / 0 = > @ ) ^ % * / ] @ - ] ",
"] = 6 # { ! # .   [ * & ~ > - . - & @ ] +   > ,   & ( @ . + > { _ ) - = > { & # / { ; { @ * & ) ] . 3 { # - ) ! = > ^ ] * = . & ",
") . + # @ { > - = * 3   ~ ( h 9 ^ * $ ] ^ * $ # 3   * > ! @ ~ @ . # { & _ & _ >   _ > @ # ] & & - . _ = ~ ! . _ { = . & = > # 3 ",
"] , b - ] # {   ~ * $ ]   ] . ! { ] ( ( ( 9 2 * & ; * > . _ $ . ] : = { . . > @ # + * + ' 2 # > .   ] _ /   - ! @ #   ! ! # ] . ",
"  $ 7   $ = # | ( ~ . = # , + - , . 9 _ * * 7 i   # . > $ : - # ^ ~   &   > > . : { / ^ , ] + = _ = _ - ^   _ ! 3 ] {   @ / . - ",
"{ = 6 . 3 ^ ] > h : ]   ^ .   . + . = & _ * = 3 ~ ~ . _ 3 _ + = # . . & , ^ ] * {   > 6 j . ] # ~ * ! ] _ { $ @ -     . > > 9 { ",
"' . # > - + @ @ _ ~ : { > & ~ * : + . @ $ * > - + & _ . ^ . > & +   = # . & ! $ > ] ] . - = & / * & + _ ; #   . ^ _ # | : _ + & ",
"* . * # ] $ + = {   . / * & b & : 0 ] . ] * : ! = -   ^ _ ~ $ . - { * ] # # . # > _   & . . @ ^ { _ / & ~ + ] #   1 & (   = - ( ",
"] = | > > ; + . @ . ^ {     +   @ _ 3   ] . ~   ( # # . ] - - + ] = > * > - /   # & { > 3 >   /   #   k ( : @ @ # ] { 3   - 1   ",
"^ ]   + ^ { ~ + / - - & ^ $ { = @ + _ + . > *   # ~ ! $ . 1     # * l ( = . ^ : = = # - >   - ^ ^ = + > & ( .   { + '   * ! 1 - ",
"( ~ - ~ ] # + = = +   m { ) # { /   . @ - _ = # ^ : & ^ ]   ] / + ] { ] ^ @ . ] . . > 0 # ] = ^ & = - [ = * / ] ] ) { . . ] ) @ ",
"& @ ~ k > * 9 - +   ( & # )   @ ! > ] # =   h * +   * . # * . - . # + ^   / 3 ]   = & # _ , = * ( > )   & { & ! / / _ _ / &   = ",
"# { > { ] _ = ^ #   = 6 _   _ . [ { ! = & _ $ ~ . & [ $ ~ @ { + +   , | ( k # ^ _ . +   ~ 9 m * { @ 9 )   . { {   ~   # = + n { ",
"^ # > { ] ~ ^ ( = ~ { > 3 . > $ . $ #   ' { 3 1 . ! ~   ] . * ~ + # / * ( ; > ~ : ] # $ * ~ @ . 3 , 1 + ^ ~   > $ & @ # . [ _ { ",
"! . ^ . 9 { { & =   / # ~ ) 3 >   . . + = . # ! ^ & + _ ^ . & _ a .   * = @ ^   . # = 2 4 / # % =   # = > ] = _ & { ) _ * 7 : & ",
"  ~ / = + ( 9 ! > { ! ~ = + 3 > { + ! + >     /   _ : . _ .   # @ ^ # _ # > $   / ~ _ ' 8 > @ _ # _   ^ 3 ) . ^ @ ! 1 _ { . ~ # ",
"b ! = & - > + # & - =   @ ] # / ! + ~   #   ) ) o p q r s t u v w < . 8 + 8 / % = ^ . : ~ _   # # ^ . 3 : > * = @ 1 . ~ - ] 3 b ",
"= 6 & & ~ { # # # ) { @ - ] . + # ] & { - x y z A B B B B B B B A C D E E E E F G H I ! ~ ] _ &     > ! ] ( * ] . + + @ #   : # ",
"  > . ^ > 8 6 & . j * ( @ ] + ~ ; # > # J K L M N O O O O O O O P Q R S S S S T U V W X 1 > { # & [   / . & _ $ > ]   . ] / 3 % ",
"' > | # ] = = * ] 3   * ~ + + . >     Y Z ` O O O O O O O O O O O  ...+.+.+.+.+.+.+.@.#.$.] + ~ 6 _ & # = > @ # - $ . # .   3 = ",
"' ] ] _   = : ^ #   + { # . * ! _ { %.&.` O O O O O O O O O O O O *.=.+.-.;.;.>.,.+.+.'.).!.. / : ^ : = _ 8 { = _ > ^ & { + ^ % ",
"# { @   - _ = - = ) # $ - = . + $ [ ~.{.O O O ].^.` /.M ` ` ` ` ` (._.:.<.[.[.[.}.|.+.+.1.2.] # # + > @ & + 6 b -   . * ] =   . ",
"_ } > & . @ > # ] 3 + . . . - ) # 3.4./.O 5.6.7.8.8.8.8.8.8.8.8.8.9.0.@.a.[.[.[.[.}.,.+.'.b.% { & = { # . { & = > > = & . = } = ",
". 7 ; & # ] ] ~ 3 - & . ~ - ! n - c.d.N O e.8.8.8.8.8.8.8.8.8.8.8.8.f.g.a.[.[.[.[.[.;.+.+.h.i.. = * & & . $   9 & ] [ = ! = * _ ",
"* - { / ] # -   1 @ @ > { = + n ! o d.N j.k.8.8.8.8.8.8.8.8.8.8.8.l.m.g.a.[.[.[.[.[.a.+.n.o.p.( = k =   . 3 . ^   ]     ! & 0 = ",
"> 9 ~   ! = = > #   % / ) {   $ b . q./.r.s.t.8.8.8.8.8.8.8.8.8.8.u.v.w.x.[.[.[.[.[.y.+.z.A.~ _     # % = ! _ & @ - / +   _ * { ",
"> . { ~ 3   / ^ # ~ . , ( & > 7 ( ^ y {.B.C.D.8.8.8.8.8.8.8.8.8.8.E.F.n.G.[.[.[.[.[.H.+.I.J.$ + ; ^ @ . ] + + 6 : + ! _ = :   + ",
"&   _ ^ - ^ ^ # _ ^ =   > & . / . + K.L.M.N.O.P.8.8.8.8.8.8.8.8.8.Q.R.S.}.[.[.[.[.T.+.U.V.v = - ( > ] ^ % . ^ _ @ +   > * > ] { ",
"+ ] ] ^   - 3 # & / 9 > > - + ! & = h W.Z ` X.Y.6.Z.Z.Z.Z.Z.Z.Z.Z.`. +.+[.[.[.}.++S.@+#+$+{ &   # $   # . > . ! ! ] : * = / . * ",
", # ! $ _ _ + > : . %+d & . * - .   h & &+*+L M N O O O O O O O ].=+-+;+>+>+,+'+)+!+~+{+/ {     ] - + ! _ { . ]   { + / @ = ! + ",
"> : *   ; = ^ . - . @ & & b ' @ 3 > > 3 ^ ]+^+/+A B B B B B B B (+_+:+<+:+:+[+}+|+&+1+  ] | - # ] ~ & { . > ( ^ - ; # ] * 0 ~ # ",
"= { $ = = ^ ) . + ] _ = ~ > 6 9 ~ 3 ] = ^   ] + 2+s 3+u 4+w 5+6+7+~ ^ h * $ . #   : . @   = = + # * ' @ = _ h = # ! > # > = @ = ",
"]   @ 3 / - = { ] ! = & _ > # # ^ : > * ) ^ # ^ . ; * * - 9 # = @ ^ 6 8+> { . # $ $   ! ] * ( ] # h + ! = * #   / - & > - > ; { ",
"] _ & + + ! ^ = ^ - { # : # _ ] # . / ] 9 - _ - ^ = / # / / 3 . { , & * ] > . . . ] . + * ( { . & 7 # . = k = = : , . _ ) ~ # & ",
"& : ~ . - ,   _ - 9   .   ] = > ( # ^ ! _ # . 3 ; 6   - * = + { + ^ 3 _ - { 7 _     4   # > # - * > > = > & ( & > # -   # [ > @ ",
": @ ~ = > & > . . ! # ( ~ * ( h + ( _ / ^ | ^ + = { =     ~ ! % |   - ~ @ = * & ( ' _ # + { 3 - ' / _ # - / . & @ + 3 )   * / . ",
"@ / .   + 1 + @ * = $ ] + ] h ;   $ # ] _ & = - . $ [ _ . ^ & = = $ ! > { :   [ & & $ 0 ' . % . @ 6 ( * { , ! .   . | ! + / . . ",
"    > #   9 @ @ _ @ @ _ - ! & ~ ^ # + ^   * 8+& . { . + = { 8+= = $ ] / . . 3 = ( { # / & # # , .   b # = . ^   & & ] + ; - ! . ",
": $ ] *   ! : = @ ! ^   > @ = . > 3 1 ! . ' * # _ * ^   > _ ' _ # & = # . ! # ~ > & . = & . + + ) ,   & > # : ] # ! , & &     @ ",
". + ] + - . + # . ^ ! & = + ~ _ _ ! ,   . / ; { ( *   { - ] ]   { * $ = & (   ] _ > @ & 6   _ ^ ) - & * ~ . { 3 + ^ * h & = ^ ~ ",
"b + ^ ! 3 - & + . & ( # & #   k - =   &   9 &   ^ & 6 & . ! & # - > > . + + # = _ + > _ = = = # ^ + * ( , - !     - * # ' ! + 3 ",
"> # * = _   + . > = ] ] - . & 3 ,   # > . 9 ~ _   6 . { > # > . # ( @ - . % @ # # _ # ! . { h   > * * ( & . > + - ) . > + >   . ",
", . @ { = & # = { &   9 ! - _ > _ =   & * & @ ! ! ~ - > + . + _ = # { ^ > ] = & { = ! + > { ! > * . _ > {   _ > * 1 ~ = > _ 9 . ",
"- & [   ^ # $ & , ] { { ^ - = @ * * & _ . _ . , 3 $ / . . *   @ : . & ^ +   ] h > ( = _   >   , @ &   @ > # > ! & ~ 3 # . = /   ",
"= # ^ . - - . #   !   > @ # = > ~ ) & @ = & . & = & & + . & 3 . , & # + . * . : + &   # * { & b = | 1 ) ! . $ ~ = ;   / ~ ^ / _ ",
";   . { > # @ * @ ~ 8+b _ > = @ ^ { ( # * [ @ 1 ~ > > = + + + { , =   3 !   * # ] *   > _ - { > ~ = / ] >   | @   @ # # > / ] = ",
"i , # = @   > >   & = + .   : 8 _ . @ >   { = - . ] | @ + ] ! . . * = ( { ]   _ # $ * >   3 . . _ { > # ( = . + , @ _ * (   # & ",
"#     1 $ | = - > & & ! ! # [ ! > ^ ^ = ~ ] { { * = _ ] > $ > #   { { ' | .   = # ~ . = 3 . , = & 3 = 3., # + _ ] 9 . > 8+  & b ",
"] ^ _ _ , : = . $ $ =   > . ! { # # #   8 ! ~   > .   @ , > 0 { > ] + 6 # - ^ & @ 3 ] $ = $ = . = { $ & : . . = . / . = { & , = ",
"  = k = . . > = = 7 _ ] # = ! { + . . > # ] > * @   =   @ # , . - = = @ { @ { * { 3 & { 6 9+# % ] & _ ! ] > & : . @ { ]   # @ , ",
"= & & {   . m !   ~ ~ :   ( = . +   _ b [ ^ * = & $ # { {   ] _ . > ! j , [ # & ^ ! ^ +     9     & ~ @   { & * > # $ * & ( + 1 ",
"  ] +   . % + . > . + > = { = ~ + & ] . ~ & ; # & - # = : + > > + ] + ~ = # 9 ' # + . / = (   .   > % ' * . ^     ! { * > & = & ",
". # / + - ^ ! ~ & # = b = * > @ + b . ~ . . { ] & ( , ~ #   > # # /   =   = { # $ # > . & + ^ # 6 & = > $ @ % )   3 # * > . @ { ",
"! + - 8   _ # @ . ] ( = _ $ & * . j > @ _ +   > * # | , _ ; & : $ # . = #   ^ . > . ] { % - . - ; * # ^ 6 6 ; + j > : = | . ] / ",
"1 & * { ~ ^ - ~ ! . # = { = * . ~ - = ; -   . ) ] * 6 >   > 6 ( # > # _   ! , ~ . ^ @ { * { * @ # 6   = # e { > ] { . ] * = > * ",
"{ $   > % . . . > # {     # b > @ ] ' * $ + { = $ ( / (   > = + 3 = #   ] _   . ^ )   = = = & : 9 #   ] > ] ~ / - . - . # + & 2 "};
