/* XPM */
static char * virus_xpm[] = {
"64 64 64 1",
" 	c #F2DEC0",
".	c #EAD6B9",
"+	c #ECD8BB",
"@	c #EFDBBD",
"#	c #F0DCBE",
"$	c #F3DEC0",
"%	c #F0DBBE",
"&	c #F1DDBF",
"*	c #F0DCBF",
"=	c #F4E0C2",
"-	c #EDD9BC",
";	c #EFDBBE",
">	c #F2DDBF",
",	c #F3DFC0",
"'	c #F2DDC0",
")	c #F1DCBE",
"!	c #F4DFC1",
"~	c #EEDABC",
"{	c #F5E0C2",
"]	c #F1DCBF",
"^	c #F7E2C4",
"/	c #EFDABD",
"(	c #F6E1C3",
"_	c #EBD7BA",
":	c #EDD9BB",
"<	c #F3DFC1",
"[	c #EED9BC",
"}	c #EDD8BB",
"|	c #F8E3C4",
"1	c #F5E1C3",
"2	c #F4E0C1",
"3	c #EEDABD",
"4	c #F4DFC2",
"5	c #F5E1C2",
"6	c #1A2406",
"7	c #F3DEC1",
"8	c #ECD8BA",
"9	c #F0DBBD",
"0	c #55711C",
"a	c #F6E2C3",
"b	c #F7E2C3",
"c	c #F8E3C5",
"d	c #EAD6BA",
"e	c #8DB045",
"f	c #BFD989",
"g	c #BEE37B",
"h	c #F2DEBF",
"i	c #394C14",
"j	c #FFFFFF",
"k	c #BC0800",
"l	c #AA433F",
"m	c #F58984",
"n	c #EBD7BB",
"o	c #F7E3C4",
"p	c #FCE7C7",
"q	c #F1DDBE",
"r	c #F9E4C5",
"s	c #F6E2C4",
"t	c #F5E0C1",
"u	c #F6E1C2",
"v	c #ECD7BA",
"w	c #F9E3C5",
"x	c #F1DDC0",
"y	c #E9D5B9",
" .+@#$#%&*=$-;>,@'#)'!%%$>;~!>>{@]&^^#$,#+/&!(/%{^ #%_%#{@! :%/#",
"<!~&%!$/#;#&!@&~~<#[)']# '&%#@}-|1 %>>2+3@& )3%$@@$<;@$#'~$/ $#@",
"#{-[~!4]#&@/5){/%%>@33!)<{+%] 66666%7@!$[/>>3-#7{&2|,~2{&@+& 5]~",
"> 8~# $].$ @# $+~{&#$@~:$#<//366666]&/!!$@  43~>&>@#-&&!&)@&3%$)",
"93#-@#@;<)>-/$]:-##~>-~[$=]#660000066>3-~}%%>%/>%-:<%)  @!':/$~&",
"@/]/9@@'7#&-&!#-@+}.!;+-/$]-6600000668 >( 3]{& =<~/$& +]>%5]# $<",
"@-&+~a>$$>)@<&~!~')~>#/$_/~:6600000662&~} /$}~3~~)%& >&&%[]#2  <",
"@3)3@+$@->{&!$@~&$))@]$ @@>&&/66006/{!&&+!(/-$~@$)>7#-@+~><#%% 9",
">+@!>#$<>#)#; >@@)]{@-/%~-'!]&66006&%@&!>$$&~$[) ]b(3$##:#&/&#)!",
"&@%&@3|<!!3+%!$!/+)$+}-+%@@666660066666- #3##~-@#3'3{{5&&~&-({>{",
" &($~3]$!$c# #%(+/)<&# $])d666660066666$+[ $(#-/@'%@<:{#+3'8#{<{",
"#$$,>'%#+~,666%&!#]%(66666600000eee000066666!a! [ #6666%@ &+/>$$",
"# ]$$#&>+660ee66$>-66000000eeeeeffeeeee0000066/#{>6000066/@:3%'{",
"&$<{ ($@&660ee66~)+66000000eeeeeffeeeee0000066<#!!6000066 +}'.#&",
",{!>$$++566000ee66600eeeeee666eeeeeeeeeeee000066660000066]-#$-@-",
">@{)3@  +66000ee66600eeeeee666eeeeeeeeeeee000066660000066%(!>&{~",
")3@~~~~&>]/66600eeeeeeeee66ggg66eeeeeeeeeeeeee000006666#-$<@/ ')",
"%-h,!#@&/@ 66600eeeeeeeee66ggg66eeeeeeeeeeeeee000006666{>{~[!%'&",
"^$>@%]@&/)(!!#6600effffee66ggg66eeeeeeeee666eeee006}(<)$@_3{|/##",
"{=)3@,>#$>&)66gg66effffeeee666eeeeeeeee66ggg66eeee066%%'>##)&~)!",
"<-]@35&83#{$66gg66effffeeee666eeeeeeeee66ggg66eeee066/~;#>%(#+]=",
"~#~@!/%+% 56gggg66eeeeeeeffeeeeeeeeeeee66ggg66eeeee0066[++/~%@&>",
" @# ={>3 $)6gggg66eeeeeeeffeeeeeeeeeeee66ggg66eeeee0066!~~@@%@&#",
"$_>%&${# -.6666600eiiiiiiiiieeeeeeeeeeeee666eeeeeee0066>>@!~&> ~",
"<%{!!!)>{@36666600eiiiiiiiiieeeeeeeeeeeee666eeeeeee0066@~!=&2!#;",
"({&(-<#@$%>60000eeijjkkkkkkkiieeeeeeeiiiiiiiiiiieee66662  #!/&]@",
"[27;&&$#]660eeeeeeijjkkkkkkkiieefffeeiijjkkkkkiiee6gg0066$$%!&&$",
"(>;3$ #)%660eeeeeeijjkkkkkkkiieefffeeiijjkkkkkiiee6gg0066${$@+#^",
"##]&666;>660eeeeeeijjjjkkkkjiieefffeeiijjjkkkkiiee6gg0066>66663#",
">>=#666><660eeeeeeijjjjkkkkjiieefffeeiijjjkkkkiiee6gg0066&6666#&",
"$2660ee6666eeeeeeeijjjjjjjjjiieeeeeeeiijjjjjjjiieee6666666000066",
"~(660ee6666eeeeeeeijjjjjjjjjiieeeeeeeiijjjjjjjiieee6666666000066",
":&660eeeeeeeee6666eiiiiiiiiieeeeeeeeeeeiiiiiiieeeefeeee000000066",
"$>660006666e66gggg6eeeeeeeeeeeffeeeeeeeeeeeeeeeeeeeee00666000066",
"&&660006666e66gggg6eeeeeeeeeeeffeeeeeeeeeeeeeeeeeeeee00666000066",
"#]$$6662^66e66gggg6eeeeeeeeeeeeeeeeeeeeeeeeeeeee666ee0066>6666!+",
"%#&#666&766e66gggg6eeeeeeeeeeeeeeeeeeeeeeeeeeeee666ee0066<6666@#",
"]+#$&5)-@660ee6666eeeeeiiiiieeeeeeiiiiiiiieeee66ggg660066&#&!!>#",
"#;/ }& /#660ee6666eeeeeiiiiieeeeeeiiiiiiiieeee66ggg660066. <>[~3",
"@3@&^!{!$]&600eeeeeeeiijjjjjiiiiiilllllllliiee66ggg6666&$&&)#@; ",
"/@><&/ )&&%600eeeeeiilllljjmjjjjjjmmmmmmmllliiee6660066-_;%:> )!",
"_/@&~+::3<{600eeeeeiilllljjmjjjjjjmmmmmmmllliiee6660066&_#n[:/#$",
"#)%>@/!%@{#66600eeeiillllmmmmmjjmmmmmmmmmmlliieeeee0066o[#@#-%/&",
"$  @[~ <$>>66600eeeiillllmmmmmjjmmmmmmmmmmlliieeeee0066(##!5!]]-",
"${9!$#2$:#]{6600eeeeeiillmmmmmmmmmmmmjjllllliieeee066&)p&,{~#{!$",
"$ -~(#q<@:- 6600eeeeeiillmmmmmmmmmmmmjjllllliieeee066%{{ ~~@!^3=",
"!{@/#}&$;@ !#+6600eeeiillllliiiiiimjjjjjjiiieeee006~&!!># [((r1&",
"')-&@#9@$@>,;>#&66eeeeeiiiiigggg66iiiiiiieeeeeee66&$>!_>$]/$]:=%",
"}&=2##%$!]3$){>/66eeeeeiiiiigggg66iiiiiiieeeeeee663]@-%s(&@@{ )~",
"&2{!>!! : $7!@6600eeeeeeeee6gggg66eeeeeeeeee0000ee6$#@@:]%@!$;7@",
"##&$93]<$>[.#]6600eeeeeeeee6gggg66eeeeeeeeee0000ee6]%]:[+~@/ ]<%",
"%$/>^)+!t&%666000066600eeeee6666eeeeeeeee0006666eee6666u:!=>!~!&",
">&2<{#%';(>666000066600eeeee6666eeeeeeeee0006666eee6666$>%!%%v+ ",
"%o2)@ >@&660000066@;[66666600000000000066666 {('66e000066&%[_~~&",
"3 =9/!!@~6600066 '/+@($&b(@666660066666{@$# ![@)660006666@#(>/^/",
"[>~_#{'$]6600066:%#@!!$#$/%666660066666$/]> +%#)660006666$%!#@{/",
"-%h##>@@%;#66666~&!#)>'[&-#+)'66006]->@))!<#[% &#/66666/-@%##-/@",
"@ >:+&)[}))66666/+!@~&;-+= %~~66006><%~.+ !3[_~%.]666669!<#@:<!+",
"-@'& < @@]&#:3@{{;%7:-@!>&~'660000066#~@._)#] ^ !&# #@/{$!/~ w![",
"@%${{{%$>{&[&$>&b!~+_#]>&%[{660000066@)3]]&&]@#:(7@#+!%[!&3(&>$$",
"&{7>>!# c(>3@>~^!!=~#&_->{)$660000666%&- {@$[@{##'>)+${%>:!!&###",
"~$@@!(&!##[/$]>+$#-[{53>$u$[>'66666~#[#%@|5~!%+-$]>[&>$)x ]@]@/(",
"!>%)$~);!&%[[}#~/#+@[>&=)3+@%#66666/::':3']y#_..-~}@%&@-@3@3!#$&",
"r{[ !.;$,!$]#@@:3)@@@)! $&~{ ~ $]$@9$9&,&!  $)-#(! -@:!%,!>$ {+#"};
