/* XPM */
static char * door_o_xpm[] = {
"64 64 607 2",
"  	c #F2DEC0",
". 	c #EAD6B9",
"+ 	c #ECD8BB",
"@ 	c #EFDBBD",
"# 	c #F0DCBE",
"$ 	c #F3DEC0",
"% 	c #F0DBBE",
"& 	c #F1DDBF",
"* 	c #F0DCBF",
"= 	c #F4E0C2",
"- 	c #EDD9BC",
"; 	c #EFDBBE",
"> 	c #F2DDBF",
", 	c #F3DFC0",
"' 	c #F2DDC0",
") 	c #F1DCBE",
"! 	c #F4DFC1",
"~ 	c #EEDABC",
"{ 	c #F5E0C2",
"] 	c #F1DCBF",
"^ 	c #F7E2C4",
"/ 	c #EFDABD",
"( 	c #F6E1C3",
"_ 	c #EBD7BA",
": 	c #EDD9BB",
"< 	c #F3DFC1",
"[ 	c #EED9BC",
"} 	c #EDD8BB",
"| 	c #F8E3C4",
"1 	c #F5E1C3",
"2 	c #F4E0C1",
"3 	c #EEDABD",
"4 	c #F4DFC2",
"5 	c #F5E1C2",
"6 	c #F3DEC1",
"7 	c #ECD8BA",
"8 	c #F0DBBD",
"9 	c #C49F88",
"0 	c #82220B",
"a 	c #81220C",
"b 	c #82240D",
"c 	c #81230C",
"d 	c #841E09",
"e 	c #F6E2C3",
"f 	c #7F3616",
"g 	c #704E23",
"h 	c #6F4F24",
"i 	c #6C4B21",
"j 	c #6B4A20",
"k 	c #6E4E23",
"l 	c #6E5024",
"m 	c #754820",
"n 	c #86230C",
"o 	c #7D2E12",
"p 	c #713B19",
"q 	c #85622E",
"r 	c #99813F",
"s 	c #998240",
"t 	c #866F2E",
"u 	c #7E6826",
"v 	c #967E3D",
"w 	c #9A8341",
"x 	c #9A8240",
"y 	c #93793B",
"z 	c #794D23",
"A 	c #703918",
"B 	c #713C1A",
"C 	c #743A19",
"D 	c #85200B",
"E 	c #851B08",
"F 	c #7D280F",
"G 	c #7D2F13",
"H 	c #825C2B",
"I 	c #866F36",
"J 	c #856F35",
"K 	c #AD944A",
"L 	c #947C33",
"M 	c #8B7329",
"N 	c #AA9147",
"O 	c #AF964B",
"P 	c #AE954A",
"Q 	c #A78F47",
"R 	c #8D763A",
"S 	c #856E35",
"T 	c #7F6930",
"U 	c #70561F",
"V 	c #773B13",
"W 	c #7D2A10",
"X 	c #802910",
"Y 	c #F7E2C3",
"Z 	c #871706",
"` 	c #871A07",
" .	c #7D421D",
"..	c #735728",
"+.	c #765C2B",
"@.	c #987F3F",
"#.	c #AB9249",
"$.	c #AC9349",
"%.	c #887026",
"&.	c #A38B42",
"*.	c #9F873F",
"=.	c #7F671D",
"-.	c #755B22",
";.	c #6F5426",
">.	c #6E481D",
",.	c #812A0E",
"'.	c #924235",
").	c #A36A5A",
"!.	c #F8E3C5",
"~.	c #812A10",
"{.	c #70411C",
"].	c #6F451E",
"^.	c #8B6D35",
"/.	c #A08843",
"(.	c #A18944",
"_.	c #A99048",
":.	c #AE944A",
"<.	c #947C34",
"[.	c #7E6616",
"}.	c #897127",
"|.	c #A18840",
"1.	c #AE954B",
"2.	c #A1883F",
"3.	c #846C21",
"4.	c #957D38",
"5.	c #937B37",
"6.	c #785E1B",
"7.	c #704A1B",
"8.	c #6D421D",
"9.	c #753A18",
"0.	c #881706",
"a.	c #7E260D",
"b.	c #815628",
"c.	c #8D7539",
"d.	c #8F783B",
"e.	c #9F8743",
"f.	c #AA9148",
"g.	c #9B833A",
"h.	c #887025",
"i.	c #7B630E",
"j.	c #7C6411",
"k.	c #8D752B",
"l.	c #977F36",
"m.	c #977E35",
"n.	c #A28940",
"o.	c #A18940",
"p.	c #826A1D",
"q.	c #8E762C",
"r.	c #988037",
"s.	c #967E37",
"t.	c #907939",
"u.	c #806A2E",
"v.	c #71521A",
"w.	c #773714",
"x.	c #851908",
"y.	c #83280F",
"z.	c #7C5326",
"A.	c #91793B",
"B.	c #A48B42",
"C.	c #A38B41",
"D.	c #9D853D",
"E.	c #816923",
"F.	c #755D14",
"G.	c #765E15",
"H.	c #775E16",
"I.	c #775F16",
"J.	c #8E7630",
"K.	c #A38A41",
"L.	c #9D843C",
"M.	c #7F6718",
"N.	c #917930",
"O.	c #AB9248",
"P.	c #7B641B",
"Q.	c #7A602A",
"R.	c #80441F",
"S.	c #871907",
"T.	c #82280F",
"U.	c #775025",
"V.	c #977E3E",
"W.	c #9F873E",
"X.	c #856D24",
"Y.	c #81691E",
"Z.	c #826A1F",
"`.	c #7E661F",
" +	c #6B531E",
".+	c #634B1E",
"++	c #644C1E",
"@+	c #735B1F",
"#+	c #81691F",
"$+	c #8E762D",
"%+	c #A0873F",
"&+	c #90782F",
"*+	c #967E35",
"=+	c #876F25",
"-+	c #9E8640",
";+	c #876B33",
">+	c #753A17",
",+	c #A46B5A",
"'+	c #7E260E",
")+	c #7E5427",
"!+	c #967D3D",
"~+	c #AC934A",
"{+	c #9D853C",
"]+	c #866E29",
"^+	c #6F571C",
"/+	c #6C531A",
"(+	c #6D541B",
"_+	c #664E19",
":+	c #483613",
"<+	c #3A2A11",
"[+	c #3C2B12",
"}+	c #564116",
"|+	c #6B531A",
"1+	c #6C541A",
"2+	c #786022",
"3+	c #8D752D",
"4+	c #836B1E",
"5+	c #A68D44",
"6+	c #8F7834",
"7+	c #715217",
"8+	c #753916",
"9+	c #861908",
"0+	c #81280F",
"a+	c #7F5528",
"b+	c #AA9249",
"c+	c #A68E44",
"d+	c #9F873D",
"e+	c #866E2A",
"f+	c #695217",
"g+	c #543E19",
"h+	c #503B1A",
"i+	c #513C1A",
"j+	c #4A3617",
"k+	c #201506",
"l+	c #000000",
"m+	c #36270F",
"n+	c #503B19",
"o+	c #5C4619",
"p+	c #715916",
"q+	c #796111",
"r+	c #8A7227",
"s+	c #A58D43",
"t+	c #937B31",
"u+	c #7D661F",
"v+	c #826730",
"w+	c #814520",
"x+	c #851A08",
"y+	c #842910",
"z+	c #775125",
"A+	c #957C3D",
"B+	c #A99047",
"C+	c #947C35",
"D+	c #7D651B",
"E+	c #7C641A",
"F+	c #6D551D",
"G+	c #503B18",
"H+	c #221706",
"I+	c #130C03",
"J+	c #160E03",
"K+	c #050301",
"L+	c #0C0701",
"M+	c #150E03",
"N+	c #110A02",
"O+	c #36270E",
"P+	c #5E471C",
"Q+	c #725A17",
"R+	c #7A6214",
"S+	c #846C23",
"T+	c #927A31",
"U+	c #8A7229",
"V+	c #9E853F",
"W+	c #7F652E",
"X+	c #763915",
"Y+	c #F2DEBF",
"Z+	c #7E270E",
"`+	c #7B5326",
" @	c #987F3E",
".@	c #A89048",
"+@	c #A99046",
"@@	c #927A32",
"#@	c #7A6222",
"$@	c #6A511D",
"%@	c #674F1C",
"&@	c #4D3A14",
"*@	c #271B09",
"=@	c #040200",
"-@	c #6E561E",
";@	c #846C26",
">@	c #826B1D",
",@	c #80681A",
"'@	c #7C651D",
")@	c #725318",
"!@	c #753C18",
"~@	c #871908",
"{@	c #792E12",
"]@	c #6F5726",
"^@	c #947C37",
"/@	c #A78E44",
"(@	c #957D35",
"_@	c #7A6221",
":@	c #5D4716",
"<@	c #473416",
"[@	c #2B1E0A",
"}@	c #090501",
"|@	c #3B2B11",
"1@	c #483517",
"2@	c #4F3B17",
"3@	c #755D11",
"4@	c #897126",
"5@	c #937B32",
"6@	c #7A620C",
"7@	c #7C6513",
"8@	c #826C2D",
"9@	c #6A451E",
"0@	c #871A08",
"a@	c #7E451F",
"b@	c #775E28",
"c@	c #7D661C",
"d@	c #A88F46",
"e@	c #957D36",
"f@	c #775F1B",
"g@	c #614A1B",
"h@	c #3F2E12",
"i@	c #0B0601",
"j@	c #070401",
"k@	c #030200",
"l@	c #010000",
"m@	c #060301",
"n@	c #020100",
"o@	c #503C18",
"p@	c #695118",
"q@	c #836B25",
"r@	c #9E863D",
"s@	c #79610C",
"t@	c #A0883F",
"u@	c #7B5A2A",
"v@	c #823214",
"w@	c #B48874",
"x@	c #743C19",
"y@	c #8A6E36",
"z@	c #9C833E",
"A@	c #846D22",
"B@	c #9A8239",
"C@	c #7A621F",
"D@	c #624B1C",
"E@	c #3B2B0F",
"F@	c #150D03",
"G@	c #221807",
"H@	c #4E3A16",
"I@	c #6E561F",
"J@	c #816921",
"K@	c #81691A",
"L@	c #7B6311",
"M@	c #81691B",
"N@	c #9D8441",
"O@	c #7A5829",
"P@	c #7C2A10",
"Q@	c #C29C87",
"R@	c #6D401B",
"S@	c #A48C42",
"T@	c #876F24",
"U@	c #715915",
"V@	c #5D461E",
"W@	c #2B1E0B",
"X@	c #453216",
"Y@	c #684F1E",
"Z@	c #796114",
"`@	c #90782E",
" #	c #927931",
".#	c #826A1E",
"+#	c #A0873E",
"@#	c #A58C46",
"##	c #765E2C",
"$#	c #782C11",
"%#	c #EAD2B6",
"&#	c #823315",
"*#	c #7F5C2B",
"=#	c #988040",
"-#	c #866E23",
";#	c #856D28",
">#	c #251908",
",#	c #3A2910",
"'#	c #5B4519",
")#	c #735C1A",
"!#	c #927A34",
"~#	c #A78E47",
"{#	c #8A7137",
"]#	c #7F4C22",
"^#	c #84220B",
"/#	c #7F260E",
"(#	c #745326",
"_#	c #9B8340",
":#	c #A58C43",
"<#	c #8A7228",
"[#	c #816A22",
"}#	c #6B531D",
"|#	c #4E3A17",
"1#	c #1F1505",
"2#	c #0A0501",
"3#	c #34250D",
"4#	c #5D461C",
"5#	c #745C1C",
"6#	c #723E1B",
"7#	c #725628",
"8#	c #9F8843",
"9#	c #957D34",
"0#	c #846C27",
"a#	c #6B531C",
"b#	c #4A3713",
"c#	c #261B09",
"d#	c #120A03",
"e#	c #35260E",
"f#	c #594317",
"g#	c #765E21",
"h#	c #8E762F",
"i#	c #8C7639",
"j#	c #6F421D",
"k#	c #745C15",
"l#	c #61491E",
"m#	c #35260F",
"n#	c #0A0601",
"o#	c #4C3818",
"p#	c #6A511B",
"q#	c #7E661A",
"r#	c #8C7539",
"s#	c #6F411C",
"t#	c #924336",
"u#	c #8D752C",
"v#	c #755D16",
"w#	c #624A1E",
"x#	c #37270F",
"y#	c #100902",
"z#	c #4D3918",
"A#	c #6B521C",
"B#	c #7F671C",
"C#	c #7E2A10",
"D#	c #745C16",
"E#	c #0F0902",
"F#	c #7E661C",
"G#	c #70431D",
"H#	c #7F290F",
"I#	c #815527",
"J#	c #937A3C",
"K#	c #998139",
"L#	c #816927",
"M#	c #654E18",
"N#	c #473514",
"O#	c #231807",
"P#	c #080401",
"Q#	c #34250E",
"R#	c #544016",
"S#	c #71591D",
"T#	c #8C742E",
"U#	c #8B6D34",
"V#	c #7D411C",
"W#	c #723A18",
"X#	c #846D35",
"Y#	c #6D551A",
"Z#	c #543E1B",
"`#	c #1B1205",
" $	c #F6E1C2",
".$	c #AA9149",
"+$	c #6D541A",
"@$	c #533E1B",
"#$	c #1B1204",
"$$	c #755C16",
"%$	c #846E35",
"&$	c #723B19",
"*$	c #7C652D",
"=$	c #E9D6B9",
"-$	c #733B1A",
";$	c #6C551D",
">$	c #733C1A",
",$	c #6A531A",
"'$	c #AF964C",
")$	c #6B531B",
"!$	c #80681C",
"~$	c #9C843B",
"{$	c #A48C43",
"]$	c #6D561D",
"^$	c #7D6517",
"/$	c #9A823A",
"($	c #846C1F",
"_$	c #856E36",
":$	c #A58C44",
"<$	c #967D35",
"[$	c #9C8440",
"}$	c #715527",
"|$	c #9E853C",
"1$	c #836C29",
"2$	c #6C4F21",
"3$	c #7E2A11",
"4$	c #745C12",
"5$	c #684B1E",
"6$	c #7F2B11",
"7$	c #947C32",
"8$	c #7D6621",
"9$	c #6A4E20",
"0$	c #7E2B11",
"a$	c #98803D",
"b$	c #705426",
"c$	c #7E290F",
"d$	c #7F671A",
"e$	c #6E551B",
"f$	c #A58D44",
"g$	c #A68E45",
"h$	c #7B6310",
"i$	c #7A6211",
"j$	c #6F561C",
"k$	c #F9E4C5",
"l$	c #7C6412",
"m$	c #7A6210",
"n$	c #755D17",
"o$	c #7D6514",
"p$	c #AD9449",
"q$	c #7A620B",
"r$	c #846C20",
"s$	c #B0964C",
"t$	c #977F37",
"u$	c #A78F45",
"v$	c #7B6313",
"w$	c #6E561B",
"x$	c #7F6717",
"y$	c #8F772D",
"z$	c #856D22",
"A$	c #998037",
"B$	c #ECD7BA",
"C$	c #F7E3C4",
"D$	c #977F3C",
"E$	c #826A1B",
"F$	c #7E6723",
"G$	c #6B4E20",
"H$	c #907836",
"I$	c #6E5224",
"J$	c #7E2910",
"K$	c #713A19",
"L$	c #AE964B",
"M$	c #846D21",
"N$	c #523E1B",
"O$	c #141204",
"P$	c #34270F",
"Q$	c #614A1E",
"R$	c #745D16",
"S$	c #AC9449",
"T$	c #A08844",
"U$	c #725728",
"V$	c #753717",
"W$	c #856832",
"X$	c #A88B45",
"Y$	c #AB8E47",
"Z$	c #A2863F",
"`$	c #85671F",
" %	c #715018",
".%	c #5B3B19",
"+%	c #351104",
"@%	c #2B0000",
"#%	c #2C0000",
"$%	c #2A0000",
"%%	c #45250E",
"&%	c #67461C",
"*%	c #775814",
"=%	c #92752F",
"-%	c #A98C45",
";%	c #AA8D47",
">%	c #9D813F",
",%	c #755226",
"'%	c #851C09",
")%	c #8A3A19",
"!%	c #954F25",
"~%	c #965126",
"{%	c #934C21",
"]%	c #8A390E",
"^%	c #842C09",
"/%	c #801E0A",
"(%	c #CAAE96",
"_%	c #AC8572",
":%	c #C09F89",
"<%	c #BC9C86",
"[%	c #BD9C86",
"}%	c #BF9E89",
"|%	c #BB9A84",
"1%	c #BB9A85",
"2%	c #BE9D87",
"3%	c #BC9B85",
"4%	c #BE9D88",
"5%	c #BA9984",
"6%	c #BC9A85",
"7%	c #C0A089",
"8%	c #BF9E88",
"9%	c #BC9B86",
"0%	c #B99883",
"a%	c #BE9C86",
"b%	c #BE9C87",
"c%	c #BE9E88",
"d%	c #C1A18B",
"e%	c #AF8875",
"f%	c #DAC1A6",
"g%	c #82250C",
"h%	c #863007",
"i%	c #8E4217",
"j%	c #965025",
"k%	c #924921",
"l%	c #852C11",
"m%	c #CEAE96",
"n%	c #F9E3C5",
"o%	c #F1DDC0",
"p%	c #E9D5B9",
"  . + @ # $ # % & * = $ - ; > , @ ' # ) ' ! % % $ > ; ~ ! > > { @ ] & ^ ^ # $ , # + / & ! ( / % { ^   # % _ % # { @ !   : % / # ",
"< ! ~ & % ! $ / # ; # & ! @ & ~ ~ < # [ ) ' ] #   ' & % # @ } - | 1   % > > 2 + 3 @ &   ) 3 % $ @ @ $ < ; @ $ # ' ~ $ /   $ # @ ",
"# { - [ ~ ! 4 ] # & @ / 5 ) { / % % > @ 3 3 ! ) < { + % ]   3   = > ) % 6 @ ! $ [ / > > 3 - # 6 { & 2 | , ~ 2 { & @ + &   5 ] ~ ",
">   7 ~ #   $ ] . $   @ #   $ + ~ { & # $ @ ~ : $ # < / / 3 # [ ! ! # ] & / ! ! $ @     4 3 ~ > & > @ # - & & ! & ) @ & 3 % $ ) ",
"8 3 # - @ # @ ; < ) > - / $ ] : - # # ~ > - ~ [ $ = ] # - : + % & @ - # % > 3 - ~ } % % > % / > % - : < % )     @ ! ' : / $ ~ & ",
"@ / ] / 8 @ @ ' 6 # & - & ! # - @ + } . ! ; + - / 9 0 a b b c a a a a c d 7   > (   3 ] { &   = < ~ / $ &   + ] > % 5 ] #   $ < ",
"@ - & + ~ e > $ $ > ) @ < & ~ ! ~ ' ) ~ > # / $ _ f g h i j k h h h h l m n & ~ }   / $ } ~ 3 ~ ~ ) % &   > & & % [ ] # 2     < ",
"@ 3 ) 3 @ + $ @ - > { & ! $ @ ~ & $ ) ) @ o p p p q r s t u v w x x x w y z A B C D ( / - $ ~ @ $ ) > 6 # - @ + ~ > < # % %   8 ",
"> + @ ! > # $ < > # ) # ;   > @ @ ) E F G H I J J r K K L M N O P P P O Q R S T U V W X ~ $ [ )   ] Y ( 3 $ # # : # & / & # ) ! ",
"& @ % & @ 3 | < ! ! 3 + % ! $ ! Z `  ...+.@.#.#.#.$.K $.L %.&.$.K K K K K #.#.*.=.-.;.>.,.'.).@ # 3 ' 3 { { 5 & & ~ & - ( { > { ",
"  & ( $ ~ 3 ] $ ! $ !.#   # % ~.{.].^./.(._.:.K K K K $.<.[.}.|.K K K K K K 1.2.3.4.5.6.7.8.9.0.@ ' % @ < : { # + 3 ' 7 # { < { ",
"# $ $ , > ' % # + ~ , >   } a.b.c.d.e.P 1.K K 1.1.1.f.g.h.i.j.k.l.m.m.n.K 1.O o.p.q.r.s.t.u.v.w.x.  # $ % # ! % @   & + / > $ $ ",
"#   ] $ $ # & > + @ ] ) / y.z.A.#.K K K K K f.B.C.B.D.E.F.G.G.H.I.I.I.J.K.&.B.L.M M.N.O.K l.P.Q.R.S./ & # 3 3 : < / @ : 3 % ' { ",
"& $ < {   ( $ @ & # > & T.U.V.f.K K K K K $.W.X.Y.Z.`. +.+++++++++++++@+#+Z.Y.$+%+M &+#.K *+=+-+;+>+,+; % ( > $ 1   + } ' . # & ",
", { ! > $ $ + + 5 ' $ '+)+!+Q P K K K 1.~+{+]+^+/+(+_+:+<+[+[+[+[+[+[+}+|+1+|+2+3+4+N.$.K *+}.5+6+7+8+9+@ Y - $ # ] - # $ - @ - ",
"> @ { ) 3 @     + 7 0+a+A.b+P K K K c+d+{+e+f+g+h+i+j+k+l+l+l+l+l+l+l+m+n+i+h+o+p+q+r+W.f.l.}.s+t+u+v+w+x+} @ > / % ( ! > & { ~ ",
") 3 @ ~ ~ ~ ~ & > y+z+A+#.K K K ~+B+C+D+E+F+G+H+I+J+I+K+l+l+l+l+l+l+l+L+M+J+N+O+P+Q+R+S+%+L }.s+T+U+V+W+X+0.- # - $ < @ /   ' ) ",
"% - Y+, ! # @ & Z+`+ @.@K K K P +@@@#@$@%@&@*@=@l+l+l+l+l+l+l+l+l+l+l+l+l+l+l+I+O+o+$@-@;@>@%.s+@@,@%.'@)@!@~@{ > { ~ [ ! % ' & ",
"^ $ > @ % ] @ & {@]@^@c+K K 1./@(@_@:@j+<@[@l+l+l+l+l+l+l+l+l+l+l+l+l+l+l+l+l+l+}@|@1@2@f+3@4@5+5@6@7@q.8@9@E $ @ _ 3 { | / # # ",
"{ = ) 3 @ , > 0@a@b@c@g.K $.d@e@f@g@h@i@j@k@l+l+l+l+l+l+l+l+l+l+l+l+l+l+l+l+l+l+l@m@n@H+o@p@q@r@$+s@,@t@s u@v@' > # # ) & ~ ) ! ",
"< - ] @ 3 5 w@x@y@z@A@B@1.f.5@C@D@E@F@l+l+l+l+l+l+l+l+l+l+l+l+l+l+l+l+l+l+l+l+l+l+l+l+j@G@H@I@J@K@L@M@t@#.N@O@P@# > % ( # + ] = ",
"~ # ~ @ ! / Q@R@R S@T@B@1.f.k.U@V@W@l+l+l+l+l+l+l+l+l+l+l+l+l+l+l+l+l+l+l+l+l+l+l+l+l+l+l+X@Y@Z@`@ #.#+#O @###$#+ + / ~ % @ & > ",
"  @ #   = %#&#*#=#&.-#B@O.W.;#f+G+>#l+l+l+l+l+l+l+l+l+l+l+l+l+l+l+l+l+l+l+l+l+l+l+l+l+l+n@,#'#)#!#g. #B.1.~#{#]#^#~ @ @ % @ & # ",
"$ _ > % & /#(#_#~+:#<#B@W.[#}#|#1#K+l+l+l+l+l+l+l+l+l+l+l+l+l+l+l+l+l+l+l+l+l+l+l+l+l+l+l+2#3#4#5#3+B.#.K ~+.@{#6#,+! ~ & >   ~ ",
"< % { ! ! F 7#8#O O.n.9#0#a#b#c#l+l+l+l+l+l+l+l+l+l+l+l+l+l+l+l+l+l+l+l+l+l+l+l+l+l+l+l+l+l+d#e#f#g#h#:#:.K K i#j#0.= & 2 ! # ; ",
"( { & ( - F 7#e.1.N {+4@k#l#m#l+l+l+l+l+l+l+l+l+l+l+l+l+l+l+l+l+l+l+l+l+l+l+l+l+l+l+l+l+l+l+l+n#o#p#q#t@1.K ~+r#s#t## ! / & ] @ ",
"[ 2 6 ; & F 7#e.O 5+u#M.v#w#x#l+l+l+l+l+l+l+l+l+l+l+l+l+l+l+l+l+l+l+l+l+l+l+l+l+l+l+l+l+l+l+l+y#z#A#B#2.1.K ~+r#s#t#$ % ! & & $ ",
"( > ; 3 $ C#..e.1.#.B.q.D#l#m+l+l+l+l+l+l+l+l+l+l+l+l+l+l+l+l+l+l+l+l+l+l+l+l+l+l+l+l+l+l+l+l+E#o#p#F#%+K K ~+i#G#S.{ $ @ + # ^ ",
"# # ] & H#I#J#~#1.B+K#L#M#N#O#l+l+l+l+l+l+l+l+l+l+l+l+l+l+l+l+l+l+l+l+l+l+l+l+l+l+l+l+l+l+l+l+P#Q#R#S#T#t@$.K e.U#V#E ! [ - 3 # ",
"> > = # W#X#f.K 1.:#3.Y#Z#`#l+l+l+l+l+l+l+l+l+l+l+l+l+l+l+l+l+l+l+l+l+l+l+l+l+l+l+l+l+l+l+l+l+l+l+x#w#v#5@$.K 1.e.7#F  $& & # & ",
"$ 2 ! > W#X#.$:.1.:#3.+$@$#$l+l+l+l+l+l+l+l+l+l+l+l+l+l+l+l+l+l+l+l+l+l+l+l+l+l+l+l+l+l+l+l+l+l+l+m+w#$$t+$.K 1.e.7#F @ ] (   $ ",
"~ ( ' & W#%$#.P 1.:#3.Y#@$#$l+l+l+l+l+l+l+l+l+l+l+l+l+l+l+l+l+l+l+l+l+l+l+l+l+l+l+l+l+l+l+l+l+l+l+x#w#$$t+$.K 1.e.7#F   ; & [ _ ",
": & < & &$*$D.N 1.:#3.Y#@$#$l+l+l+l+l+l+l+l+l+l+l+l+l+l+l+l+l+l+l+l+l+l+l+l+l+l+l+l+l+l+l+l+l+l+l+x#w#$$t+$.K 1.e.7#F # @ % =$_ ",
"$ > & [ -$;$S+B.O :#3.Y#@$#$l+l+l+l+l+l+l+l+l+l+l+l+l+l+l+l+l+l+l+l+l+l+l+l+l+l+l+l+l+l+l+l+l+l+l+x#w#$$t+$.K 1.e.7#F ] > ]   $ ",
"& & @ # >$,$Y.K.O :#3.Y#@$#$l+l+l+l+l+l+l+l+l+l+l+l+l+l+l+l+l+l+l+l+l+l+l+l+l+l+l+l+l+l+l+l+l+l+l+x#w#$$t+$.K 1.e.7#F 3 $ > 5 & ",
"# ] $ $ >$|+Z.B.'$:#3.Y#@$#$l+l+l+l+l+l+l+l+l+l+l+l+l+l+l+l+l+l+l+l+l+l+l+l+l+l+l+l+l+l+l+l+l+l+l+x#w#$$t+$.K 1.e.7#F & [ & ! + ",
"% # & # >$)$!$~$f.{$3.Y#@$#$l+l+l+l+l+l+l+l+l+l+l+l+l+l+l+l+l+l+l+l+l+l+l+l+l+l+l+l+l+l+l+l+l+l+l+x#w#$$t+$.K 1.e.7#F   ~ { @ # ",
"] + # $ >$]$^$4+/$B.3.Y#@$#$l+l+l+l+l+l+l+l+l+l+l+l+l+l+l+l+l+l+l+l+l+l+l+l+l+l+l+l+l+l+l+l+l+l+l+x#w#$$t+$.K 1.e.7#F & ! ! > # ",
"# ; /   &$*$e@($(@B.3.Y#@$#$l+l+l+l+l+l+l+l+l+l+l+l+l+l+l+l+l+l+l+l+l+l+l+l+l+l+l+l+l+l+l+l+l+l+l+x#w#$$t+$.K 1.e.7#F < > [ ~ 3 ",
"@ 3 @ & W#_$:$<#<$B.3.Y#@$#$l+l+l+l+l+l+l+l+l+l+l+l+l+l+l+l+l+l+l+l+l+l+l+l+l+l+l+l+l+l+l+l+l+l+l+x#w#$$t+$.K 1.e.7#F ) # @ ;   ",
"/ @ > < W#S :$<#<$B.3.Y#@$#$l+l+l+l+l+l+l+l+l+l+l+l+l+l+l+l+l+l+l+l+l+l+l+l+l+l+l+l+l+l+l+l+l+l+l+x#w#$$t+$.K $.[$}$F : >   ) ! ",
"_ / @ & W#S :$<#<$B.3.Y#@$#$l+l+l+l+l+l+l+l+l+l+l+l+l+l+l+l+l+l+l+l+l+l+l+l+l+l+l+l+l+l+l+l+l+l+l+x#w#$$t+$.K |$1$2$3$[ : / # $ ",
"# ) % > W#S :$<#<$B.3.Y#@$#$l+l+l+l+l+l+l+l+l+l+l+l+l+l+l+l+l+l+l+l+l+l+l+l+l+l+l+l+l+l+l+l+l+l+l+x#w#$$5@B+r@r+4$5$6$# - % / & ",
"$     @ W#S :$<#<$B.3.Y#@$#$l+l+l+l+l+l+l+l+l+l+l+l+l+l+l+l+l+l+l+l+l+l+l+l+l+l+l+l+l+l+l+l+l+l+l+x#w#$$7$s+}.K@8$9$0$5 ! ] ] - ",
"$ { 8 ! W#S :$<#9#C.3.Y#@$#$l+l+l+l+l+l+l+l+l+l+l+l+l+l+l+l+l+l+l+l+l+l+l+l+l+l+l+l+l+l+l+l+l+l+l+x#w#$$7$:#h.5@a$b$c$~ # { ! $ ",
"$   - ~ W#S :$}.T@`@d$e$@$#$l+l+l+l+l+l+l+l+l+l+l+l+l+l+l+l+l+l+l+l+l+l+l+l+l+l+l+l+l+l+l+l+l+l+l+x#w#$$L f$h.r.e.7#F @ ! ^ 3 = ",
"! { @ / W#S g$L .#h$i$j$@$#$l+l+l+l+l+l+l+l+l+l+l+l+l+l+l+l+l+l+l+l+l+l+l+l+l+l+l+l+l+l+l+l+l+l+l+x#w#$$q.{+&+r@e.7#F ( ( k$1 & ",
"' ) - & W#X#f.N 9#l$m$j$@$#$l+l+l+l+l+l+l+l+l+l+l+l+l+l+l+l+l+l+l+l+l+l+l+l+l+l+l+l+l+l+l+l+l+l+l+x#w#n$o$%.n.p$e.7#F $ ] : = % ",
"} & = 2 W#X#.$P r.l$m$j$@$#$l+l+l+l+l+l+l+l+l+l+l+l+l+l+l+l+l+l+l+l+l+l+l+l+l+l+l+l+l+l+l+l+l+l+l+x#w#n$q$r$s+s$e.7#F @ {   ) ~ ",
"& 2 { ! W#X#.$K t$h$m$j$@$#$l+l+l+l+l+l+l+l+l+l+l+l+l+l+l+l+l+l+l+l+l+l+l+l+l+l+l+l+l+l+l+l+l+l+l+x#w#n$6@,@l.u$e.7#F ! $ ; 6 @ ",
"# # & $ W#X#.$K g.p.v$w$@$#$l+l+l+l+l+l+l+l+l+l+l+l+l+l+l+l+l+l+l+l+l+l+l+l+l+l+l+l+l+l+l+l+l+l+l+x#w#v#x$p.,@B@e.7#F /   ] < % ",
"% $ / > W#X#.$K B+~$.#Y#@$#$l+l+l+l+l+l+l+l+l+l+l+l+l+l+l+l+l+l+l+l+l+l+l+l+l+l+l+l+l+l+l+l+l+l+l+x#w#$$y$~$z$r.e.7#F > ! ~ ! & ",
"> & 2 < W#X#.$K 1.s+3.+$@$#$l+l+l+l+l+l+l+l+l+l+l+l+l+l+l+l+l+l+l+l+l+l+l+l+l+l+l+l+l+l+l+l+l+l+l+x#w#$$L 5+4@A$e.7#F % % B$+   ",
"% C$2 ) W#X#.$K 1.:#3.Y#@$#$l+l+l+l+l+l+l+l+l+l+l+l+l+l+l+l+l+l+l+l+l+l+l+l+l+l+l+l+l+l+l+l+l+l+l+x#w#$$7$:#h.T+D$b$c$[ _ ~ ~ & ",
"3   = 8 W#X#.$K 1.:#3.Y#@$#$l+l+l+l+l+l+l+l+l+l+l+l+l+l+l+l+l+l+l+l+l+l+l+l+l+l+l+l+l+l+l+l+l+l+l+x#w#$$7$s+}.E$F$G$0$( > / ^ / ",
"[ > ~ _ W#X#.$K 1.:#3.Y#@$#$l+l+l+l+l+l+l+l+l+l+l+l+l+l+l+l+l+l+l+l+l+l+l+l+l+l+l+l+l+l+l+l+l+l+l+x#w#$$5@B+%+~$H$I$J$! # @ { / ",
"- % Y+# K$%$#.1.L$s+M$Y#N$O$l+l+l+l+l+l+l+l+l+l+l+l+l+l+l+l+l+l+l+l+l+l+l+l+l+l+l+l+l+l+l+l+l+l+l+P$Q$R$5@S$L$O T$U$F # # - / @ ",
"@   > : V$W$X$Y$Y$Z$`$ %.%+%@%#%#%#%#%#%#%#%#%#%#%#%#%#%#%#%#%#%#%#%#%#%#%#%#%#%#%#%#%#%#%#%#%#%$%%%&%*%=%-%;%Y$>%,%/#@ : < ! + ",
"- @ ' & '%)%!%~%~%{%]%^%/%(%_%:%:%<%[%}%|%1%<%:%2%2%3%4%[%5%6%[%7%8%<%9%<%[%3%<%0%5%a%[%b%c%d%c%e%f%g%h%i%j%~%~%k%l%m%~   n%! [ ",
"@ % $ { { { % $ > { & [ & $ > & Y ! ~ + _ # ] > & % [ { > ] ~ # $ ! { ! & @ ) 3 ] ] & & ] @ # : ( 6 @ # + ! % [ ! & 3 ( & > $ $ ",
"& { 6 > > ! #   !.( > 3 @ > ~ ^ ! ! = ~ # & _ - > { ) $ { $ # + + @ %   @ % & -   { @ $ [ @ { # # ' > ) + $ { % > : ! ! & # # # ",
"~ $ @ @ ! ( & ! # # [ / $ ] > + $ # - [ { 5 3 > $  $$ [ > ' ] ! $ $ $ ~ # [ # % @ | 5 ~ ! % + - $ ] > [ & > $ ) o%  ] @ ] @ / ( ",
"! > % ) $ ~ ) ; ! & % [ [ } # ~ / # + @ [ > & = ) 3 + @ % # {  ${ 1 # / : : ' : 3 ' ] p%# _ . . - ~ } @ % & @ - @ 3 @ 3 ! # $ & ",
"k${ [   ! . ; $ , ! $ ] # @ @ : 3 ) @ @ @ ) !   $ & ~ {   ~   $ ] $ @ 8 $ 8 & , & !     $ ) - # ( !   - @ : ! % , ! > $   { + # "};
