/* XPM */
static char * floor_xpm[] = {
"64 64 59 1",
" 	c #F2DEC0",
".	c #EAD6B9",
"+	c #ECD8BB",
"@	c #EFDBBD",
"#	c #F0DCBE",
"$	c #F3DEC0",
"%	c #F0DBBE",
"&	c #F1DDBF",
"*	c #F0DCBF",
"=	c #F4E0C2",
"-	c #EDD9BC",
";	c #EFDBBE",
">	c #F2DDBF",
",	c #F3DFC0",
"'	c #F2DDC0",
")	c #F1DCBE",
"!	c #F4DFC1",
"~	c #EEDABC",
"{	c #F5E0C2",
"]	c #F1DCBF",
"^	c #F7E2C4",
"/	c #EFDABD",
"(	c #F6E1C3",
"_	c #EBD7BA",
":	c #EDD9BB",
"<	c #F3DFC1",
"[	c #EED9BC",
"}	c #EDD8BB",
"|	c #F8E3C4",
"1	c #F5E1C3",
"2	c #F4E0C1",
"3	c #EEDABD",
"4	c #F4DFC2",
"5	c #F5E1C2",
"6	c #F3DEC1",
"7	c #ECD8BA",
"8	c #F0DBBD",
"9	c #F6E2C3",
"0	c #F7E2C3",
"a	c #F2DEBF",
"b	c #F8E3C5",
"c	c #EAD6BA",
"d	c #F5E0C3",
"e	c #E9D5B9",
"f	c #F6E1C2",
"g	c #F9E4C5",
"h	c #ECD9BB",
"i	c #EBD7BB",
"j	c #E9D6B9",
"k	c #F9E4C6",
"l	c #F5E0C1",
"m	c #ECD7BA",
"n	c #F7E3C4",
"o	c #FAE4C6",
"p	c #FCE7C7",
"q	c #F1DDBE",
"r	c #F6E2C4",
"s	c #F9E3C5",
"t	c #F1DDC0",
" .+@#$#%&*=$-;>,@'#)'!%%$>;~!>>{@]&^^#$,#+/&!(/%{^ #%_%#{@! :%/#",
"<!~&%!$/#;#&!@&~~<#[)']# '&%#@}-|1 %>>2+3@& )3%$@@$<;@$#'~$/ $#@",
"#{-[~!4]#&@/5){/%%>@33!)<{+%] 3 =>)%6@!$[/>>3-#6{&2|,~2{&@+& 5]~",
"> 7~# $].$ @# $+~{&#$@~:$#<//3#[!!#]&/!!$@  43~>&>@#-&&!&)@&3%$)",
"83#-@#@;<)>-/$]:-##~>-~[$=]#-:+%&@-#%>3-~}%%>%/>%-:<%)  @!':/$~&",
"@/]/8@@'6#&-&!#-@+}.!;+-/$]-/#$&%)]$$7 >( 3]{& =<~/$& +]>%5]# $<",
"@-&+~9>$$>)@<&~!~')~>#/$_/~:/[$-%>$'$2&~} /$}~3~~)%& >&&%[]#2  <",
"@3)3@+$@->{&!$@~&$))@]$ @@>&&/>#3&-/{!&&+!(/-$~@$)>6#-@+~><#%% 8",
">+@!>#$<>#)#; >@@)]{@-/%~-'!]&&.:%$&%@&!>$$&~$[) ]0(3$##:#&/&#)!",
"&@%&@3|<!!3+%!$!/+)$+}-+%@@[/3#)-:_#:a_- #3##~-@#3'3{{5&&~&-({>{",
" &($~3]$!$b# #%(+/)<&# $])c}$@8)!~&~#{ $+[ $(#-/@'%@<:{#+3'7#{<{",
"#$$,>'%#+~,> }%&!#]%(@&!$!d>#;[>@@< {()#3&>2!9! [ #$%#!%@ &+/>$$",
"# ]$$#&>+@])/+-!$>-~3#']3!!>>(_ 3@-&3)-)$3:]& /#{>/&#33:</@:3%'{",
"&$<{ ($@&#>&--@&~)+%{%&>>,@-!! $-@$@~%%%~_@#__<#!!@;%(>$1 +}'.#&",
",{!>$$++5'$$$]!#3$!0($]&2^{~@>#~+-@{~~@&::>]#& ~,3#~@0-$#]-#$-@-",
">@{)3@  +7)>)>:4]@3=0>%&})-+[|<ee_~+@3~[>><@) $#!{@-+}@>/%(!>&{~",
")3@~~~~&>]/3{];-]>/#~(&/3:@!@(,+-&<]>=&+ #@5+[))''~; /-#-$<@/ ')",
"%-a,!#@&/@ _{$#$+:&<(&@':>#$~/&@-05 #&%~~@< >#~]f~@@%{!{>{~[!%'&",
"^$>@%]@&/)(!!#&#;.~&]/[>%>00 #_#_ /-#>!3+@&+%@]:%@$}(<)$@_3{|/##",
"{=)3@,>#$>&)]!>!#+/%[+%{$:{g$)@@}{(&:  #~~#$&)~#@)!](%%'>##)&~)!",
"<-]@35&73#{$@{@#@@#]/]}_//@&)$%{//&/$(-&>$^!$-@%%<]{(/~;#>%(#+]=",
"~#~@!/%+% 5!]!}}[^{!6&-/#7[&>!3!!>]-{2>##@ ]#]>@{{{{}{#[++/~%@&>",
" @# ={>3 $)@@)3!={b$/@]&%~~[#@%/~+>0^-#_#&:<0${3'>$|g<>!~~@@%@&#",
"$_>%&${# -.!;+]# &!-~:-/#3[+#@>}>+>&f)[-[+.3{&##+-:*{&;>>@!~&> ~",
"<%{!!!)>{@3$:+#/(]@@$=/@3:])<~[+-3%%(}-@#/@@~/&($~3#!:#@~!=&2!#;",
"({&(-<#@$%>!<32!{{ < 2$=#@{<#~h&+//:g{>[]!+!#'3&-!3&=#!2  #!/&]@",
"[26;&&$#]6>![-@2#/@5$#[{=$~%>&&##3#&f(-:'~35{!+&#]@@{{(> $$%!&&$",
"(>;3$ #)%)$~@> ! #~]#-&{%@--$ -/& &#@!2(@]#<@/<@/@]>>>)/#${$@+#^",
"##]&' );>~~@@~>@->$@#{[->#]+-:/!#@>:-~}#]/%3&%@%]/:<@+@$%>#![-3#",
">>=#~#&><%~!{@&+%] /3$[}@/-@%}'{)%6&83__@@@){#.-3@]'])~//&%f&&#&",
"$2!>>%;f>+~:#~>!%^b!+~:&,/_-2]~/#{]@@~+%#!{ @%#-<>~-<3>/33[@]( $",
"~('&>]@ &@ @)]@&#]$$8 @$$,'&(4$>&&;3%_3&&]3~-[#~@!$&@) ~&$> ;&[_",
":&<&~@->#@;;'$&- &$$6~ ),>!5(<&&[+#<;+@+)i~~@~&%-~&/%@]d{({#@%j_",
"$>&[%>$% {$!@&(>{!<<#/;/#&;%%3)%#~~$@-$-/@&#&%{$ #@3'&_< ##]>] $",
"&&@#~+$~ $#&! )><$%+-:!2/!!8 @#=# #'&$$>&#[;~ k>{$@#$ -%#@-3$>5&",
"#]$$3a)2^(:~//-@$&[>3]{b0&&)/&.3## %#+#~]{{6/%({%&!! !$/[>&&[&!+",
"%#&#$; &6 +@~>@~!@@ )-%>{2! 7#/#' &(&$$#&$((#/$>&@;#@]>/><! ~{@#",
"]+#$&5)-@%#{#%8~(+@'$ > <$%f(>~% $$ ~~@~>)=4[)@-&!/>@! #_&#&!!>#",
"#;/ }& /##{@%$)&#&:#{|@@@3#]@~:) %&l~/~%</>&:@/[@+%>>]!&.. <>[~3",
"@3@&^!{!$]&'0!&$%3$5!]@&&@{6-]@&2/]@#&!>##3/%%'#&<{@)>&&$&&)#@; ",
"/@><&/ )&&%~> &]]>(!(#@<#}#:]@}$]>@%&]>$[@']#@$&>> '&#[-_;%:> )!",
"_/@&~+::3<{!($]~>! !^#%<'/)3%#:'#$]#$$:/3&%@$@$!]%# ~] &_#i[:/#$",
"#)%>@/!%@{##$+&>)@&<]m@#@><~5>&(>{$>$]+@]$&~!>& #%>[{>=n[#@#-%/&",
"$  @[~ <$>>&]~+]!$[f&#~+)###95{o{$~>&]+'^g<#&f->!@2/~) (##!5!]]-",
"${8!$#2$:#]{#>@$2!!^~&{%#%[#!$@&>=]%~_337m{3]&>:@-a;^&)p&,{~#{!$",
"$ -~(#q<@:- >  $#@&@ >({$6  <$3<-3>$%>%]>[3};%#>@$@%g%{{ ~~@!^3=",
"!{@/#}&$;@ !#+0$]~&8:& ($-#!$<;>$>%@~ ]#)&)9$$-#)!%~&!!># [((g1&",
"')-&@#8@$@>,;>#&/~;@--@%~&##-~](@ &[3&!&]8@{{//[/[&$>!_>$]/$]:=%",
"}&=2##%$!]3$){>/__@)^{!&&%%&(=#$$!&'2!#&&$: (!/# {3]@-%r(&@@{ )~",
"&2{!>!! : $6!@{~-;#2[>|0{3-<>/#4{$~/]5#/]#;)>$$&]!{$#@@:]%@!$;6@",
"##&$83]<$>[.#]{{!#,(]>&~^!~#%)&$! >'!#>@#&.}_-~#[~+]%]:[+~@/ ]<%",
"%$/>^)+!l&%_)>(({!&{&$@+) +&/@8#!&)$&[+:/$~_#5>4!]%-]$ f:!=>!~!&",
">&2<{#%';(>+> !;3>$ ->$$$@]@8%$@@@!]$@%':>/#!$!(3=]/[3&$>%!%%m+ ",
"%n2)@ >@&$#@&#@-@&@;[!4{]> >@~+:< ~7>!(>_%3@ {('~& ##+->~&%[_~~&",
"3 =8/!!@~@6<>]>+ '/+@($&0(@@/~]@#!2 )]{{@$# ![@)%#<]-@_)%@#(>/^/",
"[>~_#{'$]~)3+>~#:%#@!!$#$/%+]2!/}$,$&<%$/]> +%#)&@)++]+_]$%!#@{/",
"-%a##>@@%;#$!{-#~&!#)>'[&-#+)')#!>-]->@))!<#[% &#/-:) $/-@%##-/@",
"@ >:+&)[}))=3._-/+!@~&;-+= %~~-%%>#><%~.+ !3[_~%.]#%&$>8!<#@:<!+",
"-@'& < @@]&#:3@{{;%6:-@!>&~'#+[#5$@/@#~@._)#] ^ !&# #@/{$!/~ s![",
"@%${{{%$>{&[&$>&0!~+_#]>&%[{>]~#$!{!&@)3]]&&]@#:(6@#+!%[!&3(&>$$",
"&{6>>!# b(>3@>~^!!=~#&_->{)${$#++@% @%&- {@$[@{##'>)+${%>:!!&###",
"~$@@!(&!##[/$]>+$#-[{53>$f$[>']!$$$~#[#%@|5~!%+-$]>[&>$)t ]@]@/(",
"!>%)$~);!&%[[}#~/#+@[>&=)3+@%#{f{1#/::':3']e#_..-~}@%&@-@3@3!#$&",
"g{[ !.;$,!$]#@@:3)@@@)! $&~{ ~ $]$@8$8&,&!  $)-#(! -@:!%,!>$ {+#"};
