/* XPM */
static char * Beigewall_Texture_xpm[] = {
"64 64 187 2",
"  	c #EEDABC",
". 	c #F3DEC0",
"+ 	c #F4DFC1",
"@ 	c #EBD7BA",
"# 	c #F1DCBF",
"$ 	c #ECD8BB",
"% 	c #F2DDBF",
"& 	c #F0DCBE",
"* 	c #EDD9BB",
"= 	c #EFDBBD",
"- 	c #F5E0C2",
"; 	c #EAD6B9",
"> 	c #F6E1C3",
", 	c #F7E2C3",
"' 	c #E9D5B8",
") 	c #F8E3C4",
"! 	c #F9E4C5",
"~ 	c #E8D4B7",
"{ 	c #FAE5C6",
"] 	c #E7D3B7",
"^ 	c #FBE6C7",
"/ 	c #FCE7C7",
"( 	c #E6D2B6",
"_ 	c #FDE7C8",
": 	c #EDD9BC",
"< 	c #EFDBBE",
"[ 	c #EEDABD",
"} 	c #F0DCBF",
"| 	c #F2DEC0",
"1 	c #F1DDC0",
"2 	c #ECD8BC",
"3 	c #F3DFC1",
"4 	c #E5D1B5",
"5 	c #F4E0C2",
"6 	c #F5E0C3",
"7 	c #EBD7BB",
"8 	c #F6E1C4",
"9 	c #FEE8C9",
"0 	c #F7E2C4",
"a 	c #EAD6BA",
"b 	c #F8E3C5",
"c 	c #F9E4C6",
"d 	c #FFE9CA",
"e 	c #E4D1B4",
"f 	c #E9D5B9",
"g 	c #FAE5C7",
"h 	c #E8D5B8",
"i 	c #E3D0B4",
"j 	c #FBE6C8",
"k 	c #FCE7C8",
"l 	c #E7D4B8",
"m 	c #FDE8C9",
"n 	c #E6D3B7",
"o 	c #E2CFB3",
"p 	c #FEE9CA",
"q 	c #E5D2B6",
"r 	c #FFEACB",
"s 	c #E1CEB2",
"t 	c #E4D1B5",
"u 	c #E0CDB1",
"v 	c #F2DCBF",
"w 	c #F3DDC0",
"x 	c #E2CFB4",
"y 	c #F6E0C3",
"z 	c #F1DBBF",
"A 	c #F0DABE",
"B 	c #F5E1C2",
"C 	c #F8E2C4",
"D 	c #ECD9BB",
"E 	c #F4E0C1",
"F 	c #F4DEC1",
"G 	c #F7E1C3",
"H 	c #F6E2C3",
"I 	c #EDDABB",
"J 	c #F9E3C5",
"K 	c #F5DFC2",
"L 	c #F2DEBF",
"M 	c #EFD9BD",
"N 	c #F7E3C3",
"O 	c #EEDBBC",
"P 	c #FAE3C6",
"Q 	c #F3DFC0",
"R 	c #FBE4C7",
"S 	c #DFCCB0",
"T 	c #F1DEBF",
"U 	c #F0DDBE",
"V 	c #F8E4C4",
"W 	c #EBD8BA",
"X 	c #FCE5C7",
"Y 	c #EED9BC",
"Z 	c #EFDCBD",
"` 	c #F9E5C5",
" .	c #E1CEB3",
"..	c #FDE6C8",
"+.	c #DECBB0",
"@.	c #EAD7B9",
"#.	c #EDD8BB",
"$.	c #E9D6B8",
"%.	c #E8D5B7",
"&.	c #FAE6C6",
"*.	c #ECD7BB",
"=.	c #FEE7C9",
"-.	c #E0CDB2",
";.	c #FCE8C7",
">.	c #E7D4B7",
",.	c #FBE7C7",
"'.	c #FDE9C8",
").	c #EAD5B9",
"!.	c #FFE8CA",
"~.	c #EBD6BA",
"{.	c #DDCAAF",
"].	c #E6D3B6",
"^.	c #FEEAC9",
"/.	c #E5D3B5",
"(.	c #DFCCB1",
"_.	c #E9D4B8",
":.	c #FFEACA",
"<.	c #DCC9AE",
"[.	c #DBC8AD",
"}.	c #E8D3B7",
"|.	c #E7D2B7",
"1.	c #E4D2B4",
"2.	c #DAC7AC",
"3.	c #D9C6AC",
"4.	c #E3D1B4",
"5.	c #E4CFB4",
"6.	c #DDCAB0",
"7.	c #E6D1B6",
"8.	c #E5D0B5",
"9.	c #F0DBBF",
"0.	c #E2D0B3",
"a.	c #F4DEC2",
"b.	c #F5DFC3",
"c.	c #EFDABE",
"d.	c #FAE4C7",
"e.	c #F3DEC1",
"f.	c #F6E0C4",
"g.	c #F8E2C5",
"h.	c #F9E3C6",
"i.	c #D7C5AA",
"j.	c #F7E1C4",
"k.	c #D8C6AB",
"l.	c #F1DCC0",
"m.	c #FBE5C8",
"n.	c #D6C4A9",
"o.	c #EDD8BC",
"p.	c #F2DDC0",
"q.	c #EED9BD",
"r.	c #DBC9AE",
"s.	c #D4C2A8",
"t.	c #E1CFB2",
"u.	c #E2CEB3",
"v.	c #FFE8CB",
"w.	c #D8C6AC",
"x.	c #DCCAAF",
"y.	c #DFCDB0",
"z.	c #E3CFB4",
"A.	c #F2DDBE",
"B.	c #ECD7BC",
"C.	c #F6E1C2",
"D.	c #DAC8AD",
"E.	c #EAD6B8",
"F.	c #D9C7AC",
"G.	c #D3C1A7",
"H.	c #ECD7BA",
"I.	c #F9E3C4",
"J.	c #EBD6BB",
"K.	c #DFCBB0",
"L.	c #E7D3B6",
"M.	c #EFDABC",
"N.	c #EBD5B9",
"O.	c #FDE7C9",
"P.	c #EAD5BA",
"Q.	c #D5C3A9",
"R.	c #FCE6C8",
"S.	c #FEE8CA",
"T.	c #D7C5AB",
"U.	c #E0CEB1",
"V.	c #E9D4B9",
"W.	c #F5E0C1",
"X.	c #F8E2C3",
"Y.	c #DCC8AE",
"Z.	c #E5D1B6",
"`.	c #E1CDB2",
" +	c #FCE6C6",
".+	c #D5C3A8",
"++	c #DECCB0",
"| ; $ = & . & & # } 5 . : < % Q = p.& # p.+ & & . % <   + % % - = # # 0 0 & . Q & $ = # + > = & - 0 | & & @ & & - = + | * & = & ",
"3 +   # & + . = & < & # + = #     3 & Y # p.# & | p.# & & = #.: ) > | & % % E $ [ = # | # [ & . = = . 3 < = . & p.  . = | . & = ",
"& - : Y   + + # & # = = B # - = & & % = [ [ + # 3 - $ & # | [ | 5 % # & e.= + . Y = % % [ : & e.- # E ) Q   E - # = $ # | B #   ",
"% | $   & | . # ; . | = & | . $   - # & . =   * . & 3 = = [ & Y + + & # # = + + . = | | + [   % # % = & : # # + # # = # [ & . # ",
"= [ & : = & = < 3 # % : = . # * : & &   % :   Y . 5 # & : * $ & # = : & & % [ :   #.& & % & = % & : * 3 & # | | = + p.* = .   # ",
"= = # = = = = p.e.& # : # + & : = $ #.; + < $ : = . # : = & . # & # # . . $ | % > | [ # - # | 5 3   = . # | $ # % & B # & | . 3 ",
"= : # $   H % . . % # = 3 #   +   p.#   % & = . @ =   * = Y . : & % . p.. E #   #.| = . #.  [     # & # | % # # & Y # & E | | 3 ",
"= [ # [ = $ . = : % - # + . =   # . # # = # . | = = % # # = % & [ # : = - + # # $ + > = : .   = . # % e.& : = $   % 3 & & & | = ",
"% $ = + % & . 3 % & # & < | % = = # # - = : = &   : p.+ # # # ; * & . # & = # + % . . #   . Y # | # , > [ . & & * & # = # & # + ",
"# = & # = [ ) 3 + + [ $ & + . + = $ # . $ #.: $ & = = Y = [ & # : * @ & * L @ : | & [ & &   : = & [ p.[ - - B # #   # : > - % - ",
"| # > .   [ # . + . b & | & & > $ = # 3 # & | . # # a #.. = = # +   #   & - | . $ Y | . > & : = = p.& = 3 * - & $ [ p.$ & - 3 - ",
"& . . Q % p.& & $   Q % | #.& # + & # & > = # + . + 6 % & < Y % = = 3 | - > # & [ # % E + H + | Y | & . & & + & = | # $ = % . . ",
"& | # . . & # % $ = # # = $ : + . % :   [ & p.# [ + + % % > @ | [ = : # [ # : # . [ * # # | = & - % = # & [ [ * 3 = = * [ & p.- ",
"# . 3 - | > . = # & % # : : = #   # $ & - & # % % Q = : + + | . : = . =   & & &   @ = & @ @ 3 & + + = < & > % . > | $ #.p.; & # ",
"Q - + % . . $ $ B p.. . . # + & [ . + , > . # # E 0 -   = % &   $ : = -     = # * * % # & # |   Q [ &   = , : . & # : & . : = : ",
"% = - # [ = | | $ $ # % # % * + # = [ 5 , % & # #.# : $ Y ) 3 f f @   $ = [   Y % % 3 = # | . & + - = : $ #.= % = & > + % # -   ",
"# [ =         # % # = [ - # < : # % = &   > # = [ * = + = > Q $ : # 3 # % 5 # $ | & = B $ Y # # p.p.  < | = : & : . 3 = = | p.# ",
"& : L Q + & = # = = | @ - . & . $ * # 3 > # = p.* % & .   = # = : , B | & # &     = 3 | % &   # C.  = = & - + - % -   Y + & p.# ",
"0 . % = & # = # = # > + + & # & < ;   # # = Y % & % , , | & @ & @ | = : & % + [ $ = # $ & = # * & = . #.> 3 # . = @ [ - ) = & & ",
"- 5 # [ = Q % & . % # # # + % + & $ = & Y $ & - . * - ! . # = = #.- > # * | | &     & . # #   & = # + # > & & p.% & & # #   # + ",
"3 : # = [ B # $ [ & - . = - = & = = & # = # #.@ = = = # # . & - = = # = . > : # % . 0 + . : = & & 3 # - > =   < & % & > & $ # 5 ",
"  &   = + = & $ & | B + # + #.#.Y 0 - + e.# : = & $ Y # % + [ + + % # : - E % & & = | # & # % = - - - - #.- & Y $ $ =   & = # % ",
"| = & | 5 - % [ | . # = = # [ + 5 - b . = = # # &     Y & = & =   $ % , 0 : & @ & # * 3 , . - [ p.% . ) ! 3 % +     = = & = # & ",
". @ % & # . - & | : ; + < $ # & | # + :   * : = & [ Y $ & = % #.% $ % # C.# Y : Y $ ; [ - # & & $ : * } - # < % % = +   # % |   ",
"3 & - + + + # % - = [ . * $ & = > # = = . 5 = = [ * # # 3   Y $ : [ & & > #.: = & = = =   = # > .   [ & + * & =   + 5 # E + & < ",
"> - # > : 3 & = . & % + 3 [ E + - - | 3 | E . 5 & = - 3 &   D # $ = = * ! - % Y # + $ + & p.[ # : + [ # 5 & + E | | & + = # # = ",
"Y E e.< # # . & # e.% + Y : = E & = = B . & Y - 5 .   & % # # & & [ & # C.> : * p.  [ B - + $ # & # = = - - > % | . . & + # # . ",
"> % < [ . | & # & # .   = % | + | &   # & : # - & = : : . | : = # | # & = + E > = # & 3 = = 3 = = = # % % % # = & . - . = $ & 0 ",
"& & # # p.| # < %     = =   % = : % . = & - Y : % & # $ : * = + & = % * :   #.& # = & [ # & = & # = * 3 = $ = . & % & + Y : [ & ",
"% % 5 &   & # % 3 &   + - = # $ & # | = [ . Y #.= = : = & #.p.- # & e.# = [ @ @ = = = # - & ; : [ = # p.# #   = = # & C.# # & # ",
". E + % % & < C.% $   * &   % + & 0 b + $   * # Q = @ : E #   = & - # = =   $ & & + - | = & & : 3 %   : 3 [ % = [ [ Y = # > | . ",
"  > p.# % # = | # = | = # # = # & # . . = | = . . Q p.# > + . % # # < [ & @ [ # # # [   : Y &   = + . # = # |   # . % | < # Y @ ",
"* # 3 #   = : % & = < < p.. # : | # . . e.  | # Q % + B > 3 # # Y $ & 3 < $ = $ # 7     =   # & :   # = & = # 6 - > - & = & ; @ ",
". % # Y & % . & | - . + = # > % - + 3 3 & = < = & # < & & [ # & &     . = : . : = = # & # & - . | & = [ p.# @ 3 | & & # % # | . ",
"# # = &   $ .   | . & # + | # % 3 . & $ : * + E = + + = | = & 5 & | & p.# . . % # & Y <   | c % - . = & . | : & & = : [ . % B # ",
"& # . . [ L # E 0 > *   = = : = . # Y % [ # - b , # # # = # ; [ & & | & & $ &   # - - e.= & > - & # + + | + . = Y % # # Y # + $ ",
"& & # & . < | # e.| $ =   % =   + = = | # : & % - E + | $ & = & p.| # > # . . & # . > > & = . % # = < & = # % = % 3 + |   - = & ",
"# $ & . # B # : = & & - & & =   > $ = p.. | % | 3 . & C.> %   & | . . |     =   % # 5 + Y # = : # + = % = + | & @ # & # + + % & ",
"& < = | #.# | = & & - = & . # # & # * & - ) = = = [ & # =   * # | & # W.  =   & 3 = % # * = = Y = $ & % % # + # ; ; | 3 % Y   [ ",
"= [ = # 0 + - + . # # p., + # . & [ . B + # = # # = - e.: # = # E = # = & # + % & & [ = & & p.& # 3 - = # % # # . # # # & = < | ",
"= = % 3 # = | # # # &   % | # # # % > + > & = 3 & #.& * # = #.. # % = & # # % . Y = p.# & = . # % % | p.# & Y : @ < & * % | # + ",
"@ = = #   $ * * [ 3 - + > . #   % + | + 0 & & 3 p.= # [ & & * p.& . # & . . * = [ # & = . = . + # & & |   # | # @ & 7 Y * = & . ",
"& # & % = = + & = - & & . $ # % # = # 3 # H.= & = % 3   B % # > % - . % . # $ = # . #   + % # | & & % Y - % 5 ) Y & = & : & = # ",
". | | = Y   | 3 . % % # #   $ # + . Y C.# &   $ # & & & H B - { - .   % # # $ p.0 ! 3 & # C.: % + = E =   # | > & & + B + # # : ",
". - = + . & E . * & # - & % = . E + + 0   # - & & & Y & + . = # % 5 # &   @ [ [ $ H.- [ # # % * = : L < 0 # # / # Q -   & - + . ",
". | :   > & U 3 = * : | % | | . & = # = | % > - . e.| | 3 . [ 3 : [ % . & % & # % Y [ #.< & & % = . = & ! & - - |     = + 0 [ 5 ",
"+ - = = & #.# . < = | + & $ , . #   # = * # | > . : & + . 3 < % . % & =   | # & # # # H . . : & # + &   # + + % & | Y > > ! > # ",
"p.# : # = & = = . = % Q < % & # =   < = : : = &   # & & :   # > = | # Y [ # + # # = = - - = = Y = Y # . % + @ % . # = . # * 5 & ",
"#.# 5 E & & & . + # [ . # - % = @ @ = # 0 - + # # & & # > 5 & . . + # p.E + & # # . * | > + = & | - [ # = : & 8 > # = = - | #   ",
"# E - + % + + | * | . e.+ = -   : < & E Y % ) , - [ : 3 % = & + - .   = # B & = # & < # % . . # # + - . & = = * # & = + . < e.= ",
"& & # . = [ # 3 . % Y ; & # - - + & Q > # % #   0 +   & & # # . + | % p.+ & % = & # ; #.@ :   & Y   $ # & # * Y $   = = | # 3 & ",
"& . = % 0 # $ + W.# & @ # % > > - + # - # . = $ # | $ # = = = & + # # . # Y $ * = .   @ & B % + + # & : # . | C.* + 5 % +   + # ",
"% # E 3 - & & p.< > % $ % | + < [ % . | : % . . . = # = = & . = = = + # . = & p.* % = & + . + > [ 5 # = Y [ # . % & + & & H.$ | ",
"& ) E # = | % = # . & = # & = : = # = < Y + + - # % | % =   $ * 3 |   $ % + > % @ & [ = | - > p.  # | & & $ : %   # & Y @     # ",
"[ | 5 = = + + =   = e.3 % # % $ | p.= $ = > . # , > = = =   # = & + E | # # - - = . & | + Y = # & & 3 # : = @ # & = & > % = 0 = ",
"Y %   @ & - p.. #   # [ $ %   & * & & = + + . & . = & $ # E + = #.. Q . # 3 & . = # % | $ & & # # = # $ $ # $ @ # . & + & = - = ",
": & L & & % = = & < & . + - : &   # + & # % p.Y # : & $ # p.# & + % : # : % = # # + 3 & Y & | # & = : * # | . = : = & & & : = = ",
"= | % * $ # # Y #.# # 5 [ ; @ : = $ + =   # < : $ 5 | &     : & & % & % 3 &   ; $ | + [ Y @   & ; # & & # . % = + 3 & = * 3 + $ ",
": = p.# | 3 | = = # # & * [ = - - < & e.* : = + % #   p.& $ Y & B . = = = &   = ; @ # & # | 0 | + # & | & = = - . + =   | J + Y ",
"= & . - - - & . % - # Y # . % # , +   $ @ & # % # & Y - % #   & . + - + # = # [ # # # # # = & * > e.= & $ + & Y + # [ > # % . . ",
"# - e.% % + & | b > % [ = %   0 + + 5   & # @ : % - # . - . & $ $ = & | = & # : | - = . Y = - & & p.% # $ . - & % * + + # & & & ",
"  . = = + > # + & & Y = . # % $ . & : Y - B [ % . C.. Y % p.# + . . .   & Y & & = ) B   + & $ : . # % Y # % . # 1 | # = # = = > ",
"+ % & # .   # < + # & Y Y #.&   = & $ = Y % # 5 # [ $ = & & - C.- > & = * * p.* [ p.# f & @ ; ; :   #.= & # = : = [ = [ + & . # ",
"! - Y | + ; < . Q + . # & = = * [ # = = = # + | . #   - |   | . # . = = . = # Q # + | | . # : & > + | : = * + & Q + % . | - $ & "};
