/* XPM */
static char * pill_1_xpm[] = {
"64 64 222 2",
"  	c #F2DEC0",
". 	c #EAD6B9",
"+ 	c #ECD8BB",
"@ 	c #EFDBBD",
"# 	c #F0DCBE",
"$ 	c #F3DEC0",
"% 	c #F0DBBE",
"& 	c #F1DDBF",
"* 	c #F0DCBF",
"= 	c #F4E0C2",
"- 	c #EDD9BC",
"; 	c #EFDBBE",
"> 	c #F2DDBF",
", 	c #F3DFC0",
"' 	c #F2DDC0",
") 	c #F1DCBE",
"! 	c #F4DFC1",
"~ 	c #EEDABC",
"{ 	c #F5E0C2",
"] 	c #F1DCBF",
"^ 	c #F7E2C4",
"/ 	c #EFDABD",
"( 	c #F6E1C3",
"_ 	c #EBD7BA",
": 	c #EDD9BB",
"< 	c #F3DFC1",
"[ 	c #EED9BC",
"} 	c #EDD8BB",
"| 	c #F8E3C4",
"1 	c #F5E1C3",
"2 	c #F4E0C1",
"3 	c #EEDABD",
"4 	c #F4DFC2",
"5 	c #F5E1C2",
"6 	c #F3DEC1",
"7 	c #ECD8BA",
"8 	c #F0DBBD",
"9 	c #F6E2C3",
"0 	c #F7E2C3",
"a 	c #F2DEBF",
"b 	c #F8E3C5",
"c 	c #EAD6BA",
"d 	c #F5E0C3",
"e 	c #E9D5B9",
"f 	c #E1CEB2",
"g 	c #E0CCB1",
"h 	c #F5E0C1",
"i 	c #F6E1C2",
"j 	c #D7C5AA",
"k 	c #8D7F6D",
"l 	c #3A2B24",
"m 	c #390000",
"n 	c #3C2D25",
"o 	c #8C7D6C",
"p 	c #D3C1A7",
"q 	c #B0A089",
"r 	c #4C0907",
"s 	c #BE0000",
"t 	c #EF0000",
"u 	c #FE0000",
"v 	c #4D0907",
"w 	c #A89882",
"x 	c #AA9A85",
"y 	c #720000",
"z 	c #F10808",
"A 	c #FF3838",
"B 	c #FF3E3E",
"C 	c #FE1010",
"D 	c #FF0000",
"E 	c #F10000",
"F 	c #AF9F89",
"G 	c #D2C0A5",
"H 	c #4C0906",
"I 	c #FC1C1C",
"J 	c #FF4444",
"K 	c #FE4343",
"L 	c #DA1313",
"M 	c #DD0000",
"N 	c #FA0000",
"O 	c #4E0A07",
"P 	c #D7C4A9",
"Q 	c #8C7D6B",
"R 	c #BF0000",
"S 	c #FF2727",
"T 	c #E52222",
"U 	c #E12020",
"V 	c #DB1515",
"W 	c #D40000",
"X 	c #E10000",
"Y 	c #F9E4C5",
"Z 	c #3B2C24",
"` 	c #F00000",
" .	c #FD3838",
"..	c #E62828",
"+.	c #D50000",
"@.	c #FC0000",
"#.	c #3B2B24",
"$.	c #E1CDB2",
"%.	c #3B0000",
"&.	c #F50000",
"*.	c #DCC9AE",
"=.	c #420000",
"-.	c #DE0000",
";.	c #DAC7AC",
">.	c #E0CDB1",
",.	c #D9C7AB",
"'.	c #DCC8AE",
").	c #E2CEB2",
"!.	c #DECAAF",
"~.	c #DBC8AD",
"{.	c #D8C5AA",
"].	c #DFCCB0",
"^.	c #DFCBB0",
"/.	c #DDCAAF",
"(.	c #E2CFB2",
"_.	c #3A0000",
":.	c #FD0000",
"<.	c #EBD7BB",
"[.	c #E9D6B9",
"}.	c #41342B",
"|.	c #780000",
"1.	c #A80000",
"2.	c #BA0000",
"3.	c #C80000",
"4.	c #CF0000",
"5.	c #D30000",
"6.	c #D00000",
"7.	c #E60000",
"8.	c #E40000",
"9.	c #C70000",
"0.	c #7F0000",
"a.	c #1D0000",
"b.	c #4A3F35",
"c.	c #B68E73",
"d.	c #95725C",
"e.	c #614638",
"f.	c #230403",
"g.	c #1F0000",
"h.	c #220000",
"i.	c #230000",
"j.	c #200000",
"k.	c #210101",
"l.	c #604537",
"m.	c #94715B",
"n.	c #C69A7D",
"o.	c #160000",
"p.	c #F9E4C6",
"q.	c #493E35",
"r.	c #E8B795",
"s.	c #FFD3A9",
"t.	c #FFCBA5",
"u.	c #FEC8A3",
"v.	c #F3BF9C",
"w.	c #EFBC99",
"x.	c #F0BD9A",
"y.	c #FCC6A2",
"z.	c #FFC9A4",
"A.	c #FAC5A1",
"B.	c #150000",
"C.	c #E8B896",
"D.	c #FFE9B3",
"E.	c #FFE8B3",
"F.	c #FFE4B1",
"G.	c #FFE0AE",
"H.	c #FFDDAD",
"I.	c #FFDFAE",
"J.	c #FFD5A9",
"K.	c #FFD8AB",
"L.	c #483D34",
"M.	c #E8B996",
"N.	c #4F443A",
"O.	c #E7B795",
"P.	c #FFD6AA",
"Q.	c #F9C5A0",
"R.	c #1B0A07",
"S.	c #75695A",
"T.	c #D5A888",
"U.	c #FFDEAE",
"V.	c #FFCDA6",
"W.	c #E5B593",
"X.	c #50453B",
"Y.	c #9E7C64",
"Z.	c #FFE2AF",
"`.	c #FFD5AA",
" +	c #B78F74",
".+	c #948672",
"++	c #ECD7BA",
"@+	c #E4D0B4",
"#+	c #3D3028",
"$+	c #E4B492",
"%+	c #FFD3A8",
"&+	c #FFDBAC",
"*+	c #453127",
"=+	c #D4C2A8",
"-+	c #F7E3C4",
";+	c #BDAD95",
">+	c #5B4436",
",+	c #E9B895",
"'+	c #F1BE9B",
")+	c #6F5544",
"!+	c #AB9B86",
"~+	c #BAA992",
"{+	c #413026",
"]+	c #B89075",
"^+	c #EDBB98",
"/+	c #C1977B",
"(+	c #4E392D",
"_+	c #A89983",
":+	c #FCE7C7",
"<+	c #F1DDBE",
"[+	c #948673",
"}+	c #3E332B",
"|+	c #36241B",
"1+	c #38261D",
"2+	c #352A23",
"3+	c #8A7C6A",
"4+	c #D6C3A8",
"5+	c #E3CFB3",
"6+	c #E2CFB3",
"7+	c #F6E2C4",
"8+	c #F9E3C5",
"9+	c #F1DDC0",
"  . + @ # $ # % & * = $ - ; > , @ ' # ) ' ! % % $ > ; ~ ! > > { @ ] & ^ ^ # $ , # + / & ! ( / % { ^   # % _ % # { @ !   : % / # ",
"< ! ~ & % ! $ / # ; # & ! @ & ~ ~ < # [ ) ' ] #   ' & % # @ } - | 1   % > > 2 + 3 @ &   ) 3 % $ @ @ $ < ; @ $ # ' ~ $ /   $ # @ ",
"# { - [ ~ ! 4 ] # & @ / 5 ) { / % % > @ 3 3 ! ) < { + % ]   3   = > ) % 6 @ ! $ [ / > > 3 - # 6 { & 2 | , ~ 2 { & @ + &   5 ] ~ ",
">   7 ~ #   $ ] . $   @ #   $ + ~ { & # $ @ ~ : $ # < / / 3 # [ ! ! # ] & / ! ! $ @     4 3 ~ > & > @ # - & & ! & ) @ & 3 % $ ) ",
"8 3 # - @ # @ ; < ) > - / $ ] : - # # ~ > - ~ [ $ = ] # - : + % & @ - # % > 3 - ~ } % % > % / > % - : < % )     @ ! ' : / $ ~ & ",
"@ / ] / 8 @ @ ' 6 # & - & ! # - @ + } . ! ; + - / $ ] - / # $ & % ) ] $ $ 7   > (   3 ] { &   = < ~ / $ &   + ] > % 5 ] #   $ < ",
"@ - & + ~ 9 > $ $ > ) @ < & ~ ! ~ ' ) ~ > # / $ _ / ~ : / [ $ - % > $ ' $ 2 & ~ }   / $ } ~ 3 ~ ~ ) % &   > & & % [ ] # 2     < ",
"@ 3 ) 3 @ + $ @ - > { & ! $ @ ~ & $ ) ) @ ] $   @ @ > & & / > # 3 & - / { ! & & + ! ( / - $ ~ @ $ ) > 6 # - @ + ~ > < # % %   8 ",
"> + @ ! > # $ < > # ) # ;   > @ @ ) ] { @ - / % ~ - ' ! ] & & . : % $ & % @ & ! > $ $ & ~ $ [ )   ] 0 ( 3 $ # # : # & / & # ) ! ",
"& @ % & @ 3 | < ! ! 3 + % ! $ ! / + ) $ + } - + % @ @ [ / 3 # ) - : _ # : a _ -   # 3 # # ~ - @ # 3 ' 3 { { 5 & & ~ & - ( { > { ",
"  & ( $ ~ 3 ] $ ! $ b #   # % ( + / ) < & #   $ ] ) c } $ @ 8 ) ! ~ & ~ # {   $ + [   $ ( # - / @ ' % @ < : { # + 3 ' 7 # { < { ",
"# $ $ , > ' % # + ~ , >   } % & ! # ] % ( @ & ! $ ! d > # ; [ > @ @ <   { ( ) # 3 & > 2 ! 9 !   [   # $ % # ! % @   & + / > $ $ ",
"#   ] $ $ # & > + @ ] ) / + - ! $ > - ~ 3 # ' ] 3 ! ! > > ( _   3 @ - & 3 ) - ) $ 3 : ] &   / # { > / & # 3 3 : < / @ : 3 % ' { ",
"& $ < {   ( $ @ & # > & - - @ & ~ ) + % { % & > > , @ - ! !   $ - @ $ @ ~ % % % ~ _ @ # _ _ < # ! ! @ ; % ( > $ 1   + } ' . # & ",
", { ! > $ $ + + 5 ' $ $ $ ] ! # 3 $ ! 0 ( $ ] & 2 ^ { ~ @ > # ~ + - @ { ~ ~ @ & : : > ] # &   ~ , 3 # ~ @ 0 - $ # ] - # $ - @ - ",
"> @ { ) 3 @     + 7 ) > ) > : 4 ] @ 3 = 0 > % & } ) - + [ | < e e _ ~ + @ 3 ~ [ > > < @ )   $ # ! { @ - + } @ > / % ( ! > & { ~ ",
") 3 @ ~ ~ ~ ~ & > ] / 3 { ] ; - ] > / # ~ ( & / 3 : @ ! @ ( , + - & < ] > = & +   # @ 5 + [ ) ) ' ' ~ ;   / - # - $ < @ /   ' ) ",
"% - a , ! # @ & / @   _ { $ # $ + : & < ( & @ ' : > # $ ~ / @ f g h 5   # & % ~ ~ @ <   > # ~ ] i ~ @ @ % { ! { > { ~ [ ! % ' & ",
"^ $ > @ % ] @ & / ) ( ! ! # & # ; . ~ & ] / [ > % > 0 0 j k l m m n o p # > ! 3 + @ & + % @ ] : % @ $ } ( < ) $ @ _ 3 { | / # # ",
"{ = ) 3 @ , > # $ > & ) ] ! > ! # + / % [ + % { $ : ! q r s t u u t s v w &   # ~ ~ # $ & ) ~ # @ ) ! ] ( % % ' > # # ) & ~ ) ! ",
"< - ] @ 3 5 & 7 3 # { $ @ { @ # @ @ # ] / ] } _ / / x y z A B C D D D E y F - & > $ ^ ! $ - @ % % < ] { ( / ~ ; # > % ( # + ] = ",
"~ # ~ @ ! / % + %   5 ! ] ! } } [ ^ { ! 6 & - / # G H E I J K L M N D D E O P # # @   ] # ] > @ { { { { } { # [ + + / ~ % @ & > ",
"  @ #   = { > 3   $ ) @ @ ) 3 ! = { b $ / @ ] & % Q R S T U V W W X D D D R k _ # & : < 0 $ { 3 ' > $ | Y < > ! ~ ~ @ @ % @ & # ",
"$ _ > % & $ { #   - . ! ; + ] #   & ! - ~ : - / ~ Z `  ...W W W W +.@.D D ` #._ [ + . 3 { & # # + - : * { & ; > > @ ! ~ & >   ~ ",
"< % { ! ! ! ) > { @ 3 $ : + # / ( ] @ @ $ = / @ $.%.u X W W W W W W &.D D u %.f # / @ @ ~ / & ( $ ~ 3 # ! : # @ ~ ! = & 2 ! # ; ",
"( { & ( - < # @ $ % > ! < 3 2 ! { {   <   2 $ = *.=.D -.W W W W W W E D D D =.;.] ! + ! # ' 3 & - ! 3 & = # ! 2     # ! / & ] @ ",
"[ 2 6 ; & & $ # ] 6 > ! [ - @ 2 # / @ 5 $ # [ { >.=.D -.W W W W W W t D D D =.,.' ~ 3 5 { ! + & # ] @ @ { { ( >   $ $ % ! & & $ ",
"( > ; 3 $   # ) % ) $ ~ @ >   !   # ~ ] # - & { '.=.D -.W W W W W W ` D D D =.).@ ] # < @ / < @ / @ ] > > > ) / # $ { $ @ + # ^ ",
"# # ] & '   ) ; > ~ ~ @ @ ~ > @ - > $ @ # { [ - !.=.D -.W W W W W W E D D D =.*.] / % 3 & % @ % ] / : < @ + @ $ % > # ! [ - 3 # ",
"> > = # ~ # & > < % ~ ! { @ & + % ]   / 3 $ [ } ~.=.D -.W W W W W W E D D D =.{.@ @ @ ) { # . - 3 @ ] ' ] ) ~ / / & % i & & # & ",
"$ 2 ! > > % ; i > + ~ : # ~ > ! % ^ b ! + ~ : & ].=.D -.W W W W W W E D D D =.'.# ! {   @ % # - < > ~ - < 3 > / 3 3 [ @ ] (   $ ",
"~ ( ' & > ] @   & @   @ ) ] @ & # ] $ $ 8   @ $ ^.=.D -.W W W W W W E D D D =./.& ] 3 ~ - [ # ~ @ ! $ & @ )   ~ & $ >   ; & [ _ ",
": & < & ~ @ - > # @ ; ; ' $ & -   & $ $ 6 ~   ) (._.@.-.W W W W W W E D D :.%.~.) <.~ ~ @ ~ & % - ~ & / % @ ] d { ( { # @ % [._ ",
"$ > & [ % > $ %   { $ ! @ & ( > { ! < < # / ; / 3 }.|.1.2.3.4.5.W 6.7.8.9.0.a.[./ @ & # & % { $   # @ 3 ' & _ <   # # ] > ]   $ ",
"& & @ # ~ + $ ~   $ # & !   ) > < $ % + - : ! 2 / b.c.d.e.f.g.h.i.j.k.l.m.n.o.@ & # [ ; ~   p.> { $ @ # $   - % # @ - 3 $ > 5 & ",
"# ] $ $ 3 a ) 2 ^ ( : ~ / / - @ $ & [ > 3 ] { b 0 q.r.s.t.u.v.w.w.x.y.z.z.A.B.7 ] { { 6 / % ( { % & ! !   ! $ / [ > & & [ & ! + ",
"% # & # $ ;   & 6   + @ ~ > @ ~ ! @ @   ) - % > { b.C.D.E.F.G.H.H.H.I.J.z.A.B.~ & $ ( ( # / $ > & @ ; # @ ] > / > < !   ~ { @ # ",
"] + # $ & 5 ) - @ % # { # % 8 ~ ( + @ ' $   >   < b.C.D.D.D.D.D.D.D.D.K.z.A.B.7 > ) = 4 [ ) @ - & ! / > @ !   # _ & # & ! ! > # ",
"# ; /   } &   / # # { @ % $ ) & # & : # { | @ @ @ L.M.D.D.D.D.D.D.D.D.K.z.A.B.[ < / > & : @ / [ @ + % > > ] ! & . .   < > [ ~ 3 ",
"@ 3 @ & ^ ! { ! $ ] & ' 0 ! & $ % 3 $ 5 ! ] @ & & N.O.E.D.D.D.D.D.D.D.P.z.Q.R.8 # # 3 / % % ' # & < { @ ) > & & $ & & ) # @ ;   ",
"/ @ > < & /   ) & & % ~ >   & ] ] > ( ! ( # @ < # S.T.U.D.D.D.D.D.D.E.V.z.W.X.$ [ @ ' ] # @ $ & > >   ' & # [ - _ ; % : >   ) ! ",
"_ / @ & ~ + : : 3 < { ! ( $ ] ~ > !   ! ^ # % < ' x Y.t.Z.D.D.D.D.E.`.z.z. +.+/ 3 & % @ $ @ $ ! ] % #   ~ ]   & _ # <.[ : / # $ ",
"# ) % > @ / ! % @ { # # $ + & > ) @ & < ] ++@ # @ @+#+$+z.%+&+H.K.V.z.z.x.*+=+@ ] $ & ~ ! > &   # % > [ { > = -+[ # @ # - % / & ",
"$     @ [ ~   < $ > > & ] ~ + ] ! $ [ i & # ~ + ) # ;+>+,+z.z.z.z.z.z.'+)+!++ ' ^ Y < # & i - > ! @ 2 / ~ )   ( # # ! 5 ! ] ] - ",
"$ { 8 ! $ # 2 $ : # ] { # > @ $ 2 ! ! ^ ~ & { % # % [ ~+{+]+^+u.z.'+/+(+_+. 3 3 7 ++{ 3 ] & > : @ - a ; ^ & ) :+& , { ~ # { ! $ ",
"$   - ~ ( # <+< @ : -   >     $ # @ & @   > ( { $ 6     /.[+}+|+1+2+3+4+% > % ] > [ 3 } ; % # > @ $ @ % Y % { {   ~ ~ @ ! ^ 3 = ",
"! { @ / # } & $ ; @   ! # + 0 $ ] ~ & 8 : &   ( $ - # ! $ < 3 5+6+8 % @ ~   ] # ) & ) 9 $ $ - # ) ! % ~ & ! ! > #   [ ( ( Y 1 & ",
"' ) - & @ # 8 @ $ @ > , ; > # & / ~ ; @ - - @ % ~ & # # - ~ ] ( @   & [ 3 & ! & ] 8 @ { { / / [ / [ & $ > ! _ > $ ] / $ ] : = % ",
"} & = 2 # # % $ ! ] 3 $ ) { > / _ _ @ ) ^ { ! & & % % & ( = # $ $ ! & ' 2 ! # & & $ :   ( ! / #   { 3 ] @ - % 7+( & @ @ {   ) ~ ",
"& 2 { ! > ! !   :   $ 6 ! @ { ~ - ; # 2 [ > | 0 { 3 - < > / # 4 { $ ~ / ] 5 # / ] # ; ) > $ $ & ] ! { $ # @ @ : ] % @ ! $ ; 6 @ ",
"# # & $ 8 3 ] < $ > [ . # ] { { ! # , ( ] > & ~ ^ ! ~ # % ) & $ !   > ' ! # > @ # & . } _ - ~ # [ ~ + ] % ] : [ + ~ @ /   ] < % ",
"% $ / > ^ ) + ! h & % _ ) > ( ( { ! & { & $ @ + )   + & / @ 8 # ! & ) $ & [ + : / $ ~ _ # 5 > 4 ! ] % - ] $   i : ! = > ! ~ ! & ",
"> & 2 < { # % ' ; ( > + >   ! ; 3 > $   - > $ $ $ @ ] @ 8 % $ @ @ @ ! ] $ @ % ' : > / # ! $ ! ( 3 = ] / [ 3 & $ > % ! % % +++   ",
"% -+2 ) @   > @ & $ # @ & # @ - @ & @ ; [ ! 4 { ] >   > @ ~ + : <   ~ 7 > ! ( > _ % 3 @   { ( ' ~ &   # # + - > ~ & % [ _ ~ ~ & ",
"3   = 8 / ! ! @ ~ @ 6 < > ] > +   ' / + @ ( $ & 0 ( @ @ / ~ ] @ # ! 2   ) ] { { @ $ #   ! [ @ ) % # < ] - @ _ ) % @ # ( > / ^ / ",
"[ > ~ _ # { ' $ ] ~ ) 3 + > ~ # : % # @ ! ! $ # $ / % + ] 2 ! / } $ , $ & < % $ / ] >   + % # ) & @ ) + + ] + _ ] $ % ! # @ { / ",
"- % a # # > @ @ % ; # $ ! { - # ~ & ! # ) > ' [ & - # + ) ' ) # ! > - ] - > @ ) ) ! < # [ %   & # / - : )   $ / - @ % # # - / @ ",
"@   > : + & ) [ } ) ) = 3 . _ - / + ! @ ~ & ; - + =   % ~ ~ - % % > # > < % ~ . +   ! 3 [ _ ~ % . ] # % & $ > 8 ! < # @ : < ! + ",
"- @ ' &   <   @ @ ] & # : 3 @ { { ; % 6 : - @ ! > & ~ ' # + [ # 5 $ @ / @ # ~ @ . _ ) # ]   ^   ! & #   # @ / { $ ! / ~   8+! [ ",
"@ % $ { { { % $ > { & [ & $ > & 0 ! ~ + _ # ] > & % [ { > ] ~ # $ ! { ! & @ ) 3 ] ] & & ] @ # : ( 6 @ # + ! % [ ! & 3 ( & > $ $ ",
"& { 6 > > ! #   b ( > 3 @ > ~ ^ ! ! = ~ # & _ - > { ) $ { $ # + + @ %   @ % & -   { @ $ [ @ { # # ' > ) + $ { % > : ! ! & # # # ",
"~ $ @ @ ! ( & ! # # [ / $ ] > + $ # - [ { 5 3 > $ i $ [ > ' ] ! $ $ $ ~ # [ # % @ | 5 ~ ! % + - $ ] > [ & > $ ) 9+  ] @ ] @ / ( ",
"! > % ) $ ~ ) ; ! & % [ [ } # ~ / # + @ [ > & = ) 3 + @ % # { i { 1 # / : : ' : 3 ' ] e # _ . . - ~ } @ % & @ - @ 3 @ 3 ! # $ & ",
"Y { [   ! . ; $ , ! $ ] # @ @ : 3 ) @ @ @ ) !   $ & ~ {   ~   $ ] $ @ 8 $ 8 & , & !     $ ) - # ( !   - @ : ! % , ! > $   { + # "};
