/* XPM */
static char * pill_3_xpm[] = {
"64 64 222 2",
"  	c #F9E4C5",
". 	c #F4DFC1",
"+ 	c #EEDABC",
"@ 	c #F1DDBF",
"# 	c #EFDBBD",
"$ 	c #EDD9BC",
"% 	c #EED9BC",
"& 	c #EEDABD",
"* 	c #F0DBBE",
"= 	c #F2DDBF",
"- 	c #F0DCBE",
"; 	c #EDD8BB",
"> 	c #F2DDC0",
", 	c #F3DEC0",
"' 	c #EBD7BA",
") 	c #EFDABD",
"! 	c #F1DCBF",
"~ 	c #EDD9BB",
"{ 	c #F6E1C3",
"] 	c #F3DFC1",
"^ 	c #F2DEC0",
"/ 	c #F5E0C2",
"( 	c #F7E2C4",
"_ 	c #F1DCBE",
": 	c #F3DFC0",
"< 	c #F0DBBD",
"[ 	c #F7E3C4",
"} 	c #F4E0C1",
"| 	c #EFDBBE",
"1 	c #ECD8BB",
"2 	c #F4E0C2",
"3 	c #EAD6B9",
"4 	c #F3DEC1",
"5 	c #F2DEBF",
"6 	c #ECD8BA",
"7 	c #F5E1C2",
"8 	c #F6E2C3",
"9 	c #F1DDBE",
"0 	c #F8E3C4",
"a 	c #F4DFC2",
"b 	c #F6E1C2",
"c 	c #F8E3C5",
"d 	c #F5E0C1",
"e 	c #F0DCBF",
"f 	c #F7E2C3",
"g 	c #ECD7BA",
"h 	c #E2CFB2",
"i 	c #DFCBB0",
"j 	c #DFCCB0",
"k 	c #DBC8AD",
"l 	c #DECAAF",
"m 	c #DCC8AE",
"n 	c #E0CDB1",
"o 	c #DCC9AE",
"p 	c #E1CDB2",
"q 	c #E4D0B4",
"r 	c #AA9A85",
"s 	c #75695A",
"t 	c #4F443A",
"u 	c #483D34",
"v 	c #4A3F35",
"w 	c #493E35",
"x 	c #41342B",
"y 	c #3A0000",
"z 	c #420000",
"A 	c #3B0000",
"B 	c #3B2C24",
"C 	c #8C7D6B",
"D 	c #D2C0A5",
"E 	c #BDAD95",
"F 	c #3D3028",
"G 	c #9E7C64",
"H 	c #D5A888",
"I 	c #E7B795",
"J 	c #E8B996",
"K 	c #E8B896",
"L 	c #E8B795",
"M 	c #B68E73",
"N 	c #780000",
"O 	c #FC0000",
"P 	c #FF0000",
"Q 	c #FE0000",
"R 	c #F00000",
"S 	c #BF0000",
"T 	c #4C0906",
"U 	c #F5E0C3",
"V 	c #EAD6BA",
"W 	c #BAA992",
"X 	c #5B4436",
"Y 	c #E4B492",
"Z 	c #FFCBA5",
"` 	c #FFDEAE",
" .	c #FFE8B3",
"..	c #FFE9B3",
"+.	c #FFD3A9",
"@.	c #95725C",
"#.	c #A80000",
"$.	c #DE0000",
"%.	c #E10000",
"&.	c #FD3838",
"*.	c #FF2727",
"=.	c #F10000",
"-.	c #720000",
";.	c #B0A089",
">.	c #DDCAAF",
",.	c #413026",
"'.	c #E9B895",
").	c #FFC9A4",
"!.	c #FFE2AF",
"~.	c #614638",
"{.	c #BA0000",
"].	c #D40000",
"^.	c #E62828",
"/.	c #E52222",
"(.	c #FC1C1C",
"_.	c #F10808",
":.	c #4C0907",
"<.	c #D7C5AA",
"[.	c #948673",
"}.	c #B89075",
"|.	c #FFD3A8",
"1.	c #FFE4B1",
"2.	c #FEC8A3",
"3.	c #230403",
"4.	c #C80000",
"5.	c #E12020",
"6.	c #FF4444",
"7.	c #FF3838",
"8.	c #BE0000",
"9.	c #8D7F6D",
"0.	c #3E332B",
"a.	c #EDBB98",
"b.	c #FFDBAC",
"c.	c #FFE0AE",
"d.	c #F3BF9C",
"e.	c #1F0000",
"f.	c #CF0000",
"g.	c #DB1515",
"h.	c #FE4343",
"i.	c #FF3E3E",
"j.	c #EF0000",
"k.	c #3A2B24",
"l.	c #E3CFB3",
"m.	c #36241B",
"n.	c #FFDDAD",
"o.	c #EFBC99",
"p.	c #220000",
"q.	c #D30000",
"r.	c #DA1313",
"s.	c #FE1010",
"t.	c #390000",
"u.	c #E1CEB2",
"v.	c #E9D5B9",
"w.	c #E2CFB3",
"x.	c #38261D",
"y.	c #FFD8AB",
"z.	c #230000",
"A.	c #DD0000",
"B.	c #E0CCB1",
"C.	c #F5E1C3",
"D.	c #352A23",
"E.	c #F1BE9B",
"F.	c #FFCDA6",
"G.	c #F0BD9A",
"H.	c #200000",
"I.	c #D00000",
"J.	c #D50000",
"K.	c #FA0000",
"L.	c #3C2D25",
"M.	c #8A7C6A",
"N.	c #C1977B",
"O.	c #FFD5AA",
"P.	c #FFDFAE",
"Q.	c #FCC6A2",
"R.	c #210101",
"S.	c #E60000",
"T.	c #F50000",
"U.	c #8C7D6C",
"V.	c #D6C3A8",
"W.	c #4E392D",
"X.	c #FFD6AA",
"Y.	c #FFD5A9",
"Z.	c #604537",
"`.	c #E40000",
" +	c #4D0907",
".+	c #D3C1A7",
"++	c #A89983",
"@+	c #6F5544",
"#+	c #94715B",
"$+	c #C70000",
"%+	c #A89882",
"&+	c #AB9B86",
"*+	c #453127",
"=+	c #B78F74",
"-+	c #E5B593",
";+	c #F9C5A0",
">+	c #FAC5A1",
",+	c #C69A7D",
"'+	c #7F0000",
")+	c #FD0000",
"!+	c #4E0A07",
"~+	c #AF9F89",
"{+	c #D4C2A8",
"]+	c #948672",
"^+	c #50453B",
"/+	c #1B0A07",
"(+	c #150000",
"_+	c #160000",
":+	c #1D0000",
"<+	c #3B2B24",
"[+	c #D7C4A9",
"}+	c #E9D6B9",
"|+	c #D8C5AA",
"1+	c #E2CEB2",
"2+	c #D9C7AB",
"3+	c #DAC7AC",
"4+	c #EBD7BB",
"5+	c #F9E4C6",
"6+	c #F6E2C4",
"7+	c #FCE7C7",
"8+	c #F1DDC0",
"9+	c #F9E3C5",
"  . + @ # $ # $ % & * = * - @ ; > . , , , - ' ) # - ! * - @ , ~ + , = - { % { ] , ^ + ] / ( * _ = : @ - - ^ @ = # # # < = - ] ^ ",
"/ = , / * # ^ * = ^ [ @ , - } @ _ / ^ / ^ _ ) # & | 1 - ! @ = @ { } = - = } / * ' # - $ 2 , $ & # / , ^ , @ # 1 & $ ) & ^ / . 3 ",
"% * # 4 , > = 5 + 2 } } ) @ / 2 $ # $ < ^ * # = # ) - @ , # @ ] > . 2 ! | 4 @ / = - + ! _ = 5 # / . ] ! , { * # _ @ ! - 6 $ + 1 ",
"^ _ # = / @ ~ - ' < _ ] = , . } @ ) + . # = @ ] @ ^ , - , - % @ @ = - @ & | { . * ^ # # & # : + _ = / , : , @ . & 1 ) $ + % @ # ",
". , . = / ^ 1 - - ) # / ( < = - # - { , % # + @ ( ; @ , & + * + = = + > , @ $ . @ 2 . & # * . + & , ^ , = + # = # + < # - + * - ",
"3 + { . / ] @ = / . ^ - _ & . - - ; - - + ) 1 ) . @ 7 | 5 1 = # ! * - ^ ^ @ ] . , / ) 7 : ! - + # , { - > & & - 1 8 # - ^ . . , ",
"| _ @ - * ^ _ # > . = * 1 ! . * < @ 9 } ^ . ~ ^ / ^ _ ^ _ , , $ # | @ _ - , - _ / = * @ = # # + ^ 1 , @ * ! 0 , , = # # , a , - ",
", | . ^ , # % # , # # > . ] ^ , # , ] , ] * ~ _ . ) $ @ } + * = ^ b = | _ - # = - & 1 6 - @ @ @ ^ 1 # = - , ] ] # , > | ! ! ) * ",
": . - c = # ; * ! + @ | d , ~ . , | # ~ , # & @ , - # 4 ( ^ ^ - @ = ] = * ! , / ^ ^ * & , ) ) = 1 7 @ 1 1 . . = $ , 4 ] 3 - - @ ",
". @ - { / ! _ | + # , { @ = ^ ! # # ~ - = / ] @ ! - * ^ { , / # # 1 * + _ 4 * # $ , ^ - = _ # ! 6 > - # + , . - = = - _ , @ | e ",
", * % = @ @ _ - _ 4 - = * % , & = ^ $ ! = - / * @ / - 1 ~ - , | ^ + + + , = = & 3 _ 7 / @ { ^ ) _ , = ! : c & _ / _ @ = ^ # - 2 ",
"! % ) & % - 2 , & ] # 1 ' 3 4 , : . ^ / @ - . + > # / # + @ . | # ~ . # + . . , . # . , _ . ' & = , @ _ = - 1 - @ # $ $ # ) @ , ",
"- % , # @ ~ & . 1 = @ = _ - . _ | - = - ! , { = f * - + ) . # > _ - / # # % ] ~ | # ! # ! . / / _ , $ ) ^ ^ * | . ] @ ) - 7 . $ ",
"# ; ! = , & 3 / = ! - ^ = ! # / = 1 ^ = + 1 , ^ . , * = ) ^ @ , ! + # + = $ & 1 1 _ . / . - , ! = ! $ 1 ; - . ^ , @ . , ^ _ # | ",
"# - = + = # ' $ + = # . { / / = - f ^ # 1 @ ! @ @ _ < # $ _ { @ # = @ = ^ # } - ! & ; # = @ - | ~ . # $ * * , = # + - ! , / @ = ",
"~ + 1 ( @ / $ - - 1 $ | { / + ) @ , , , ! = + ! , @ + + # = = $ @ . 1 # . } . ) - . ; - . - , $ a - @ . @ { . # + . $ ~ 1 ) + : ",
"& ) , . f / ) + ~ ^ # & / . $ ' ) ! - } . _ = ! * - { . , ] / ^ - * * $ ^ - / { ^ 2 % # - | 1 ! ! & + , . 1 ) # @ + # $ + * + # ",
"_ - - . . | 1 @ * > @ = . - | ' + + # . , # . = & @ 1 # @ , . @ ! ( ! = - ) / ! @ / ( # 1 3 ~ = # , _ = - ) 1 _ , > 1 - / * ] > ",
"# 1 $ 2 + * . . - ) # , @ : - # | @ @ . % @ ^ { , ~ # # % * ] , , c ^ , + # ^ # . c / - ) + @ ) & . 1 $ ! _ _ ! _ _ ; - @ = - - ",
"# # % + 1 4 # - # 1 | ^ / { } _ # < # ( b ] . . 7 - > ^ = 1 ] , , . ) # ! 7 ] # $ , . ! * @ ] - 2 f * + * ] , / _ + 3 + - # % _ ",
"# % / - ' ~ + _ . # % $ @ ! % ( $ ~ ^ + @ ! ( { . / , _ & $ - 4 < 1 & - - , ^ , + ) 4 ) % ! { + f { / & { @ 1 # # = . = , & _ > ",
"_ = 7 @ - $ @ = . { . = , = = / $ @ = @ - g - - ! 0 ^ $ ! ~ ) + ^ + , / $ - } 2 ~ # @ ! 1 ) @ { = , * - # - ; $ ! - | $ # & > . ",
". @ & ' ! # | > , , a , # @ 0 . # ^ { / + # * # # # = * / . | ^ # ~ % % @ % , ) $ ! $ ; * % # @ * ! @ > @ ^ $ ) , ) 1 + + . ! * ",
"^ 2 = $ = . $ % - @ / , 1 + f @ * { / * 1 - ] ] @ # ^ = c } ) _ , @ ; $ / / 2 # ) @ ) ' / = > ) @ @ = ! . , 1 * ^ , $ % ~ _ - * ",
", _ , = @ = 1 @ , f ! , _ ( / @ + , , - _ # > - @ # ] / f ) & h i j k l m n o p + * - ) , * ~ & ; } = & , ! * + # ' ) , , ] ^ , ",
"@ & b / * @ 2 $ ) { = # ^ . & * @ $ 4 * - q r s t u v v w v x y z z z z z z z A B C D ) ~ = = ~ _ ( : . . _ # $ # ) , 2 - / > = ",
"+ 1 , _ % + ^ - * # ^ ! 1 + $ * - - ^ % E F G H I J K K L M N O P P P P P P P Q R S T r . f - # $ / # . U V # > = + ! ! ] 1 @ | ",
"/ # % , / > * 1 1 # = # @ - ] @ - . ^ W X Y Z `  .......+.@.#.$.$.$.$.$.$.$.$.%.&.*.=.-.;.f , . 1 + $ = = ; % . @ ~ $ - ) * * + ",
"^ * = / = - + _ ! ) # < ) * = { $ , >.,.'.).!......... .Z ~.{.].].].].].].].].].^./.(._.:.<.+ # % # . = - , ) ! @ ) ) $ ) ! - . ",
"+ - > , ! 1 + > } + + * # _ ) 2 + ] [.}.).|...........1.2.3.4.].].].].].].].].].].5.6.7.8.9.) { 0 = . { | # & @ ) % - ~ & ^ # = ",
"^ / ! - + % $ _ . ! 1 , < @ - - ! & 0.a.).b...........c.d.e.f.].].].].].].].].].].g.h.i.j.k.# : ] - ^ ' % < - @ = , , 1 - & ; = ",
", b . 1 - - * - ) # ~ # - , a , { l.m.2.).n...........n.o.p.q.].].].].].].].].].].].r.s.Q t.u.1 v.+ , ^ = _ _ 3 - $ @ * % ^ $ / ",
"! / , 1 , 7 * . ; - ] # . . / , # w.x.).).y...........n.o.z.].].].].].].].].].].].].A.P Q t.B.$ v.1 $ & # . $ ~ & * * @ . 2 0 # ",
", C., # . , = = , . ^ # @ ^ , . ^ < D.E.).F. .........n.G.H.I.].].].].].].].].].J.%.K.P j.L.d @ ' $ # # # + ~ * @ = _ # . = C.! ",
"# - , * / # - $ : } + . _ = + @ @ * M.N.).).O. .......P.Q.R.S.=.=.=.=.=.R j.=.T.O P P P 8.U.7 ] + # , $ ] @ ' , $ , ! $ - _ ^ @ ",
"< ) + ^ . ) = ! , ^ 6 ! , > ) > % # V.W.E.).).F.X.y.y.Y.).Z.`.P P P P P P P P P P P P =. +.+^ ! 1 / # @ ^ + - @ ) > , - ! * * ( ",
", ~ - # @ # ] $ @ _ = , @ . ! } & + * ++@+G.).).).).).).).#+$+P P P P P P P P P P P =.-.%+- - = # + + & / - ~ * / , , * @ 4 = ( ",
"< ~ % * # - * = ] ! . # % - 7 . @ ^ = 3 &+*+=+-+;+>+>+>+>+,+'+)+P P P P P P P Q R S !+~+@ = @ 2 & + * _ { / 5 # . } 6 = ) # = - ",
"@ > - @ _ + + # * / { * 1 = - - . ! * & 1 {+]+^+/+(+(+(+(+_+:+A z z z z z z z A <+9.[+$ ^ . * @ + # * $ _ ^ ' @ @ @ ^ & . . } , ",
": ~ * $ & # 3 _ , / = > ~ # ) @ @ - ! & > # ) , < % 6 + 6 # }+k >.m |+o 1+2+3+u.' ' - @ - & + 1 % @ * _ - , $ . @ + = $ . , 1 : ",
"@ & # ^ ! 3 1 _ ) # ' ~ ) - ! @ ! _ = 6 ( ! & % - ] = @ ! @ ) _ @ - # ! # > ! - % - - = + 1 + ^ = ~ + , & 1 ^ = 1 ; { + , % & - ",
". > 0 / ! ' ^ . ! , * = , @ - , < @ % g   , @ # - ) _ , / - # 4+! . # ) ! + . ) 1 @ # , + # # - = ~ ' & @ % - , . ^ ^ ; # ) # 1 ",
"^ ! 7 # @ _ . ] = - & ) + 3 | ~ # _ & / ] @ * > & = 2 { / % @ + & / # * - & 1 # 3 ~ ^ ( - @ ] # ] = # ~ = ^ & , { ) & * ^ = @ ) ",
"^ v.+ , @ - & - ^ ^ # - ' ; _ ^ / 8 ; & - + # ! ) @ a { 4 | - + + ^ _ & ] 7 . # & ] ! . , 1 ^ 7 # ! - ! } , - @ ) , ! * ^ = ^ @ ",
", - . % ! ! % % 1 . ^ . - ' = { / , | ! @ . , - * ~ % - ) + @ # $ # / @ # / - + / f - , @ * = 1 _ - ' @ . { - + $ ; / = a & _ . ",
"_ ' * # # ^ ' * * % / , 7 $ , . ) , * @ b = # # * # _ ) * ^ * + % * - * ) . > ) @ , ! $ _ # - % ^ @ ' ^ 8 - + , , + @ * & $ & { ",
"$ 3 1 / - ( + ^ - # { . = + , ) ) $ - = $ @ , , > ) # , { 5+/ @ - - 3 # ] 1 & @ - / = # + ! + _ , ^ ] ) . $ $ % + & ^ ) + - * ) ",
"- 3 $ - ~ ^ * @ _ _ > { a - @ - % - = ~ = ^ . @ - % $ = / = , * + $ $ * # @ @ { - & # * - ~ ! _ - + - - ^ ) # _ # + 2 = = 4 , * ",
"{ $ , - { . 3 - @ * + & . % ! ^ ) _ # # . - ! = @ # @ @ * / ^ $ # ] & ! ) - $ , 1 > / * # * b > . : . / % # - ^ , + ] * @ / # / ",
". + ! > 4 @ ! ) # - @ 2 ! + . / % . , $ # * * = ] 1 . # @ , - + . = # ) # ! . + $ = / ] _ # + > / & . = ^ > & ! _ _ + $ = @ # ( ",
"^ ; = = # - - $ _ ] ^ ! * 1 / & @ * # 5 } = - ^ / * ) | . # # @ , + ! ~ ! # & & ~ , / ! . , # + # - # ) - * > f = * ) ~ # } , ^ ",
"$ # % _ - ^ * ~ 1 ! - ) $ ! , ! , + * | ) % ^ > # = = - . - & ) @ $ > ] = # @ - e 0 / / ! ; # | $ + | @ , # & { 4 @ , ] - 0 ] - ",
"# * @ 1 1 - @ _ 1 $ - % ! * - # = @   ( + / + @ _ = # # ^ , > * # ] ! # = / 2 . /   ; { { { * ^ 1 # * - * ] / & - ^ @ * $ : | * ",
"~ @ = , . # , ^ ! # 1 & , ! # $ . . * @ _ = ! - = ! . ! . ^ @ # _ & _ 1 = / - ~ @ ] / ) * ] / ) ; f { & - ~ / , $ = ^ _ @ + # ' ",
". # , / * ) = , 1 ' $ @ ^ ~ # * ' . / _ ^ 2 ^ % @ . ^ = , $ ' ! ^ = + # _ { . - | = - + * _ . $ # $ = & . / 7 - # @ 1 ^ @ } , * ",
"* $ _ * % / < ) ' _ = , b % ~ 6+= = / 7+{ [ @ $ @ @ - ) ) * ] U + ) ) , ) = } # = . % | > , / - = , , ~ * - @ - 1 @ ! ^ . / - - ",
": # 8+= . , . $ ! * + = ~ 1 ! { , - ^ @ - % ' ' , 3 ' = % - ^ / @ & ) * - ^ ^ + = + 1 - = # = $ ) - C.] # 1 @ ~ + * = # @ @ > / ",
". & ^ ~ @ . ] # , # @ * . + * @ ! ^ + : - - - | @ 3 @ ] = # - { , & @ = , , ^ . # + 1 = - ' / , * ! ^ ) ^ & + - = % * . _ # + # ",
"= # ! . & ) - * * - * . 2 # # # ) % + / . # 4+* @ ^ - . @ $ - / = % * - / , - 2 . # ) * - & + ] { $ 1 # @ > @ @ ] ! 7 > # 1 , . ",
", & # . { + # - . { % * = ) . # , { # + 7 - % ~ _ ] @ ^ @ & ! - ^ # b . , * . @ + # + { _ / % # . - ; ~ 1 6 $ ) - - ! ~ @ @ ) ^ ",
"^ . ! @ @ ^ ~ - - = ' * . ^ , / ! { . - . $ ~ = - = . + % , = # | ! @ % # . ) } @ * * - @ 0 . ) = , > & ) - { @ * } - ) & ^ ^ ~ ",
"/ - # - = 9+] $ # ) + g + ! | ^ ~   ( / ! * ) ^ # % . / @ = ! * @ { @ $ 1 @ @ . = # # 1 + ) * ^ @ $ 3 * = / / - * ^ ^ , * 7 , * ",
"1 , ) - , . . ) / ( + 1 . ] 4 _ 2 C.& . ! ) - _ | + = # . 7 ^ }+% ^ - & - @ ! - ^ @ @ ! _ - > > / # - > , ] = _ ^ ^ , + , ! - ) ",
"- @ { - , % 1 # ) ) @ ^ @ * # + * @ 2 , $ @ , . ^ & - - 1 @ , ' ' , @ - ( , # | + - = 2 . - @ _ + $ @ / , / / . < ] ] @ _ + # - "};
